<mxfile host="app.diagrams.net" agent="Mozilla/5.0 (Macintosh; Intel Mac OS X 10_15_7) AppleWebKit/537.36 (KHTML, like Gecko) Chrome/137.0.0.0 Safari/537.36" version="27.2.0">
  <diagram name="Page-1" id="MxvoKU37M3fdWtfnio12">
    <mxGraphModel dx="9433" dy="1949" grid="1" gridSize="10" guides="1" tooltips="1" connect="1" arrows="1" fold="1" page="1" pageScale="1" pageWidth="1169" pageHeight="1654" math="0" shadow="0">
      <root>
        <mxCell id="0" />
        <mxCell id="1" parent="0" />
        <mxCell id="OjwI3aqR1hCVZbcka7N2-54" value="" style="swimlane;startSize=0;strokeWidth=3;" parent="1" vertex="1">
          <mxGeometry x="-4215" y="1720" width="4970" height="1510" as="geometry" />
        </mxCell>
        <mxCell id="OjwI3aqR1hCVZbcka7N2-61" value="Domain Layer" style="text;html=1;align=center;verticalAlign=middle;whiteSpace=wrap;rounded=0;fontSize=20;fontStyle=7" parent="OjwI3aqR1hCVZbcka7N2-54" vertex="1">
          <mxGeometry x="40" y="20" width="150" height="30" as="geometry" />
        </mxCell>
        <mxCell id="OjwI3aqR1hCVZbcka7N2-262" value="extends" style="edgeStyle=orthogonalEdgeStyle;rounded=0;orthogonalLoop=1;jettySize=auto;html=1;exitX=0.5;exitY=0;exitDx=0;exitDy=0;entryX=0.5;entryY=1;entryDx=0;entryDy=0;endArrow=none;startFill=0;" parent="OjwI3aqR1hCVZbcka7N2-54" source="OjwI3aqR1hCVZbcka7N2-8" target="OjwI3aqR1hCVZbcka7N2-6" edge="1">
          <mxGeometry relative="1" as="geometry" />
        </mxCell>
        <mxCell id="OjwI3aqR1hCVZbcka7N2-176" style="edgeStyle=orthogonalEdgeStyle;rounded=0;orthogonalLoop=1;jettySize=auto;html=1;exitX=0.5;exitY=0;exitDx=0;exitDy=0;entryX=0.5;entryY=1;entryDx=0;entryDy=0;endArrow=none;startFill=0;" parent="OjwI3aqR1hCVZbcka7N2-54" source="OjwI3aqR1hCVZbcka7N2-14" target="OjwI3aqR1hCVZbcka7N2-12" edge="1">
          <mxGeometry relative="1" as="geometry">
            <Array as="points">
              <mxPoint x="1600" y="500" />
              <mxPoint x="1750" y="500" />
            </Array>
          </mxGeometry>
        </mxCell>
        <mxCell id="OjwI3aqR1hCVZbcka7N2-18" value="PurchasePolicy" style="rounded=0;whiteSpace=wrap;html=1;fontSize=19;" parent="OjwI3aqR1hCVZbcka7N2-54" vertex="1">
          <mxGeometry x="2670" y="780" width="166" height="60" as="geometry" />
        </mxCell>
        <mxCell id="OjwI3aqR1hCVZbcka7N2-175" style="edgeStyle=orthogonalEdgeStyle;rounded=0;orthogonalLoop=1;jettySize=auto;html=1;exitX=0.5;exitY=1;exitDx=0;exitDy=0;entryX=0.5;entryY=0;entryDx=0;entryDy=0;endArrow=none;startFill=0;" parent="OjwI3aqR1hCVZbcka7N2-54" source="OjwI3aqR1hCVZbcka7N2-12" target="OjwI3aqR1hCVZbcka7N2-18" edge="1">
          <mxGeometry relative="1" as="geometry">
            <Array as="points">
              <mxPoint x="1750" y="500" />
              <mxPoint x="2753" y="500" />
            </Array>
          </mxGeometry>
        </mxCell>
        <mxCell id="OjwI3aqR1hCVZbcka7N2-12" value="PolicyHandler" style="rounded=0;whiteSpace=wrap;html=1;fontSize=19;" parent="OjwI3aqR1hCVZbcka7N2-54" vertex="1">
          <mxGeometry x="1660" y="334" width="180" height="50" as="geometry" />
        </mxCell>
        <mxCell id="OjwI3aqR1hCVZbcka7N2-174" style="edgeStyle=orthogonalEdgeStyle;rounded=0;orthogonalLoop=1;jettySize=auto;html=1;exitX=0.5;exitY=1;exitDx=0;exitDy=0;entryX=0.5;entryY=0;entryDx=0;entryDy=0;endArrow=none;startFill=0;" parent="OjwI3aqR1hCVZbcka7N2-54" source="OjwI3aqR1hCVZbcka7N2-4" target="OjwI3aqR1hCVZbcka7N2-12" edge="1">
          <mxGeometry relative="1" as="geometry" />
        </mxCell>
        <mxCell id="OjwI3aqR1hCVZbcka7N2-297" style="edgeStyle=orthogonalEdgeStyle;rounded=0;orthogonalLoop=1;jettySize=auto;html=1;exitX=0.5;exitY=0;exitDx=0;exitDy=0;entryX=0.5;entryY=1;entryDx=0;entryDy=0;endArrow=none;startFill=0;" parent="OjwI3aqR1hCVZbcka7N2-54" source="OjwI3aqR1hCVZbcka7N2-4" target="OjwI3aqR1hCVZbcka7N2-296" edge="1">
          <mxGeometry relative="1" as="geometry" />
        </mxCell>
        <mxCell id="OjwI3aqR1hCVZbcka7N2-4" value="Store" style="rounded=0;whiteSpace=wrap;html=1;fontSize=19;" parent="OjwI3aqR1hCVZbcka7N2-54" vertex="1">
          <mxGeometry x="1505.5" y="235.5" width="129" height="50" as="geometry" />
        </mxCell>
        <mxCell id="OjwI3aqR1hCVZbcka7N2-5" value="**Listing" style="rounded=0;whiteSpace=wrap;html=1;fontSize=19;" parent="OjwI3aqR1hCVZbcka7N2-54" vertex="1">
          <mxGeometry x="2378.5" y="78" width="170" height="52.5" as="geometry" />
        </mxCell>
        <mxCell id="bWdd-FNuYPZd20RBbe-Y-111" style="edgeStyle=orthogonalEdgeStyle;rounded=0;orthogonalLoop=1;jettySize=auto;html=1;entryX=1;entryY=0.5;entryDx=0;entryDy=0;" parent="OjwI3aqR1hCVZbcka7N2-54" source="OjwI3aqR1hCVZbcka7N2-6" target="OjwI3aqR1hCVZbcka7N2-63" edge="1">
          <mxGeometry relative="1" as="geometry" />
        </mxCell>
        <mxCell id="OjwI3aqR1hCVZbcka7N2-230" style="edgeStyle=orthogonalEdgeStyle;rounded=0;orthogonalLoop=1;jettySize=auto;html=1;exitX=0.5;exitY=1;exitDx=0;exitDy=0;" parent="OjwI3aqR1hCVZbcka7N2-54" edge="1">
          <mxGeometry relative="1" as="geometry">
            <mxPoint x="1760" y="482.5" as="sourcePoint" />
            <mxPoint x="1760" y="482.5" as="targetPoint" />
          </mxGeometry>
        </mxCell>
        <mxCell id="OjwI3aqR1hCVZbcka7N2-235" value="**DefaultDiscountPolicy" style="rounded=0;whiteSpace=wrap;html=1;fontSize=19;" parent="OjwI3aqR1hCVZbcka7N2-54" vertex="1">
          <mxGeometry x="1536.5" y="870" width="213.5" height="70" as="geometry" />
        </mxCell>
        <mxCell id="OjwI3aqR1hCVZbcka7N2-296" value="IStoreRepository" style="rounded=0;whiteSpace=wrap;html=1;fontSize=19;" parent="OjwI3aqR1hCVZbcka7N2-54" vertex="1">
          <mxGeometry x="1480" y="90.5" width="180" height="50" as="geometry" />
        </mxCell>
        <mxCell id="bWdd-FNuYPZd20RBbe-Y-91" value="RegularPurchase" style="rounded=0;whiteSpace=wrap;html=1;fontSize=19;" parent="OjwI3aqR1hCVZbcka7N2-54" vertex="1">
          <mxGeometry x="85" y="578.5" width="214" height="73" as="geometry" />
        </mxCell>
        <mxCell id="bWdd-FNuYPZd20RBbe-Y-93" value="BidPurchase" style="rounded=0;whiteSpace=wrap;html=1;fontSize=19;" parent="OjwI3aqR1hCVZbcka7N2-54" vertex="1">
          <mxGeometry x="391" y="573.5" width="157" height="83" as="geometry" />
        </mxCell>
        <mxCell id="bWdd-FNuYPZd20RBbe-Y-95" value="AuctionPurchase" style="rounded=0;whiteSpace=wrap;html=1;fontSize=19;" parent="OjwI3aqR1hCVZbcka7N2-54" vertex="1">
          <mxGeometry x="631" y="585" width="177" height="66.5" as="geometry" />
        </mxCell>
        <mxCell id="bWdd-FNuYPZd20RBbe-Y-97" value="RafflePurchase" style="rounded=0;whiteSpace=wrap;html=1;fontSize=19;" parent="OjwI3aqR1hCVZbcka7N2-54" vertex="1">
          <mxGeometry x="840" y="587.5" width="140" height="61.5" as="geometry" />
        </mxCell>
        <mxCell id="bWdd-FNuYPZd20RBbe-Y-98" style="edgeStyle=orthogonalEdgeStyle;rounded=0;orthogonalLoop=1;jettySize=auto;html=1;exitX=0.5;exitY=1;exitDx=0;exitDy=0;" parent="OjwI3aqR1hCVZbcka7N2-54" edge="1">
          <mxGeometry relative="1" as="geometry">
            <mxPoint x="1366.5" y="677" as="sourcePoint" />
            <mxPoint x="1366.5" y="677" as="targetPoint" />
          </mxGeometry>
        </mxCell>
        <mxCell id="bWdd-FNuYPZd20RBbe-Y-113" style="edgeStyle=orthogonalEdgeStyle;rounded=0;orthogonalLoop=1;jettySize=auto;html=1;entryX=0.516;entryY=-0.03;entryDx=0;entryDy=0;entryPerimeter=0;" parent="OjwI3aqR1hCVZbcka7N2-54" source="OjwI3aqR1hCVZbcka7N2-63" target="OjwI3aqR1hCVZbcka7N2-10" edge="1">
          <mxGeometry relative="1" as="geometry" />
        </mxCell>
        <mxCell id="bWdd-FNuYPZd20RBbe-Y-193" value="IPurchaseRepository" style="rounded=0;whiteSpace=wrap;html=1;fontSize=19;" parent="OjwI3aqR1hCVZbcka7N2-54" vertex="1">
          <mxGeometry x="496" y="75.5" width="180" height="50" as="geometry" />
        </mxCell>
        <mxCell id="ffmA45xrEq2P1KVk74QQ-1" value="IStoreProductManager" style="rounded=0;whiteSpace=wrap;html=1;fontSize=19;" parent="OjwI3aqR1hCVZbcka7N2-54" vertex="1">
          <mxGeometry x="1773" y="230.5" width="215" height="60" as="geometry" />
        </mxCell>
        <mxCell id="OjwI3aqR1hCVZbcka7N2-63" value="ShoppingCart" style="rounded=0;whiteSpace=wrap;html=1;fontSize=19;" parent="OjwI3aqR1hCVZbcka7N2-54" vertex="1">
          <mxGeometry x="3605" y="363" width="159.5" height="50" as="geometry" />
        </mxCell>
        <mxCell id="OjwI3aqR1hCVZbcka7N2-6" value="**User" style="rounded=0;whiteSpace=wrap;html=1;fontSize=19;" parent="OjwI3aqR1hCVZbcka7N2-54" vertex="1">
          <mxGeometry x="4003" y="363" width="140" height="50" as="geometry" />
        </mxCell>
        <mxCell id="OjwI3aqR1hCVZbcka7N2-10" value="StoreBag" style="rounded=0;whiteSpace=wrap;html=1;fontSize=19;" parent="OjwI3aqR1hCVZbcka7N2-54" vertex="1">
          <mxGeometry x="3600" y="496.5" width="165" height="50" as="geometry" />
        </mxCell>
        <mxCell id="OjwI3aqR1hCVZbcka7N2-8" value="Subscriber" style="rounded=0;whiteSpace=wrap;html=1;fontSize=19;" parent="OjwI3aqR1hCVZbcka7N2-54" vertex="1">
          <mxGeometry x="3983" y="621" width="160" height="55" as="geometry" />
        </mxCell>
        <mxCell id="OjwI3aqR1hCVZbcka7N2-229" value="Admin" style="rounded=0;whiteSpace=wrap;html=1;fontSize=19;" parent="OjwI3aqR1hCVZbcka7N2-54" vertex="1">
          <mxGeometry x="3999.5" y="842.5" width="127" height="60" as="geometry" />
        </mxCell>
        <mxCell id="ffmA45xrEq2P1KVk74QQ-7" value="" style="endArrow=none;html=1;rounded=0;fontSize=12;startSize=8;endSize=8;curved=1;exitX=1;exitY=0.5;exitDx=0;exitDy=0;entryX=0;entryY=0.5;entryDx=0;entryDy=0;" parent="OjwI3aqR1hCVZbcka7N2-54" source="OjwI3aqR1hCVZbcka7N2-4" target="ffmA45xrEq2P1KVk74QQ-1" edge="1">
          <mxGeometry width="50" height="50" relative="1" as="geometry">
            <mxPoint x="1428.5" y="270.5" as="sourcePoint" />
            <mxPoint x="1338.5" y="235.5" as="targetPoint" />
          </mxGeometry>
        </mxCell>
        <mxCell id="ffmA45xrEq2P1KVk74QQ-12" value="DiscountPolicyFactory" style="rounded=0;whiteSpace=wrap;html=1;fontSize=19;" parent="OjwI3aqR1hCVZbcka7N2-54" vertex="1">
          <mxGeometry x="1043" y="620" width="230" height="60" as="geometry" />
        </mxCell>
        <mxCell id="ffmA45xrEq2P1KVk74QQ-11" value="**PercentegeTargetedDiscount" style="rounded=0;whiteSpace=wrap;html=1;fontSize=19;" parent="OjwI3aqR1hCVZbcka7N2-54" vertex="1">
          <mxGeometry x="1760" y="870" width="273" height="65" as="geometry" />
        </mxCell>
        <mxCell id="ffmA45xrEq2P1KVk74QQ-10" value="**CouponDiscountPolicy" style="rounded=0;whiteSpace=wrap;html=1;fontSize=19;" parent="OjwI3aqR1hCVZbcka7N2-54" vertex="1">
          <mxGeometry x="1315" y="873" width="215" height="67" as="geometry" />
        </mxCell>
        <mxCell id="ffmA45xrEq2P1KVk74QQ-23" value="" style="endArrow=none;html=1;rounded=0;fontSize=12;startSize=8;endSize=8;curved=1;entryX=0.5;entryY=1;entryDx=0;entryDy=0;exitX=0.5;exitY=0;exitDx=0;exitDy=0;" parent="OjwI3aqR1hCVZbcka7N2-54" source="ffmA45xrEq2P1KVk74QQ-10" target="OjwI3aqR1hCVZbcka7N2-14" edge="1">
          <mxGeometry width="50" height="50" relative="1" as="geometry">
            <mxPoint x="1115" y="662" as="sourcePoint" />
            <mxPoint x="1630" y="530" as="targetPoint" />
          </mxGeometry>
        </mxCell>
        <mxCell id="ffmA45xrEq2P1KVk74QQ-53" value="implements" style="edgeLabel;html=1;align=center;verticalAlign=middle;resizable=0;points=[];fontSize=12;" parent="ffmA45xrEq2P1KVk74QQ-23" vertex="1" connectable="0">
          <mxGeometry x="-0.002" y="2" relative="1" as="geometry">
            <mxPoint x="-1" as="offset" />
          </mxGeometry>
        </mxCell>
        <mxCell id="ffmA45xrEq2P1KVk74QQ-25" value="" style="endArrow=none;html=1;rounded=0;fontSize=12;startSize=8;endSize=8;curved=1;exitX=0.5;exitY=0;exitDx=0;exitDy=0;entryX=0.5;entryY=1;entryDx=0;entryDy=0;" parent="OjwI3aqR1hCVZbcka7N2-54" source="ffmA45xrEq2P1KVk74QQ-11" target="OjwI3aqR1hCVZbcka7N2-14" edge="1">
          <mxGeometry width="50" height="50" relative="1" as="geometry">
            <mxPoint x="1812.5" y="664.5" as="sourcePoint" />
            <mxPoint x="1619.1200000000003" y="519.3799999999997" as="targetPoint" />
          </mxGeometry>
        </mxCell>
        <mxCell id="ffmA45xrEq2P1KVk74QQ-55" value="implemets" style="edgeLabel;html=1;align=center;verticalAlign=middle;resizable=0;points=[];fontSize=12;" parent="ffmA45xrEq2P1KVk74QQ-25" vertex="1" connectable="0">
          <mxGeometry x="0.0016" relative="1" as="geometry">
            <mxPoint as="offset" />
          </mxGeometry>
        </mxCell>
        <mxCell id="OjwI3aqR1hCVZbcka7N2-294" value="IUserRepository" style="rounded=0;whiteSpace=wrap;html=1;fontSize=19;" parent="OjwI3aqR1hCVZbcka7N2-54" vertex="1">
          <mxGeometry x="3873" y="100" width="180" height="50" as="geometry" />
        </mxCell>
        <mxCell id="OjwI3aqR1hCVZbcka7N2-295" style="edgeStyle=orthogonalEdgeStyle;rounded=0;orthogonalLoop=1;jettySize=auto;html=1;exitX=0.5;exitY=0;exitDx=0;exitDy=0;entryX=0.5;entryY=1;entryDx=0;entryDy=0;endArrow=none;startFill=0;" parent="OjwI3aqR1hCVZbcka7N2-54" source="OjwI3aqR1hCVZbcka7N2-6" target="OjwI3aqR1hCVZbcka7N2-294" edge="1">
          <mxGeometry relative="1" as="geometry" />
        </mxCell>
        <mxCell id="ffmA45xrEq2P1KVk74QQ-33" value="" style="endArrow=none;html=1;rounded=0;fontSize=12;startSize=8;endSize=8;curved=1;exitX=0.5;exitY=0;exitDx=0;exitDy=0;entryX=0.5;entryY=1;entryDx=0;entryDy=0;" parent="OjwI3aqR1hCVZbcka7N2-54" source="OjwI3aqR1hCVZbcka7N2-235" target="OjwI3aqR1hCVZbcka7N2-14" edge="1">
          <mxGeometry width="50" height="50" relative="1" as="geometry">
            <mxPoint x="-1668" y="1252" as="sourcePoint" />
            <mxPoint x="-1640" y="1100" as="targetPoint" />
          </mxGeometry>
        </mxCell>
        <mxCell id="ffmA45xrEq2P1KVk74QQ-54" value="implements" style="edgeLabel;html=1;align=center;verticalAlign=middle;resizable=0;points=[];fontSize=12;" parent="ffmA45xrEq2P1KVk74QQ-33" vertex="1" connectable="0">
          <mxGeometry x="0.0468" relative="1" as="geometry">
            <mxPoint y="1" as="offset" />
          </mxGeometry>
        </mxCell>
        <mxCell id="OjwI3aqR1hCVZbcka7N2-14" value="DiscountPolicy" style="rounded=0;whiteSpace=wrap;html=1;fontSize=19;" parent="OjwI3aqR1hCVZbcka7N2-54" vertex="1">
          <mxGeometry x="1520" y="620" width="160" height="60" as="geometry" />
        </mxCell>
        <mxCell id="ffmA45xrEq2P1KVk74QQ-32" value="PurchasePolicyFactory" style="rounded=0;whiteSpace=wrap;html=1;fontSize=19;" parent="OjwI3aqR1hCVZbcka7N2-54" vertex="1">
          <mxGeometry x="2960" y="775" width="201" height="70" as="geometry" />
        </mxCell>
        <mxCell id="ffmA45xrEq2P1KVk74QQ-31" value="**MinItemsPurchasePolicy" style="rounded=0;whiteSpace=wrap;html=1;fontSize=19;" parent="OjwI3aqR1hCVZbcka7N2-54" vertex="1">
          <mxGeometry x="2639.5" y="1040" width="227" height="60" as="geometry" />
        </mxCell>
        <mxCell id="ffmA45xrEq2P1KVk74QQ-30" value="**DefultPurchasePolicy" style="rounded=0;whiteSpace=wrap;html=1;fontSize=19;" parent="OjwI3aqR1hCVZbcka7N2-54" vertex="1">
          <mxGeometry x="3122" y="1040" width="260" height="60" as="geometry" />
        </mxCell>
        <mxCell id="ffmA45xrEq2P1KVk74QQ-29" value="**MaxItemsPurchasePolicy" style="rounded=0;whiteSpace=wrap;html=1;fontSize=19;" parent="OjwI3aqR1hCVZbcka7N2-54" vertex="1">
          <mxGeometry x="2878" y="1040" width="232" height="60" as="geometry" />
        </mxCell>
        <mxCell id="ffmA45xrEq2P1KVk74QQ-28" value="**PercentegeDiscountPolicy" style="rounded=0;whiteSpace=wrap;html=1;fontSize=19;" parent="OjwI3aqR1hCVZbcka7N2-54" vertex="1">
          <mxGeometry x="2154" y="1040" width="250" height="60" as="geometry" />
        </mxCell>
        <mxCell id="ffmA45xrEq2P1KVk74QQ-36" value="" style="endArrow=none;html=1;rounded=0;fontSize=12;startSize=8;endSize=8;curved=1;entryX=0;entryY=0.5;entryDx=0;entryDy=0;exitX=1;exitY=0.5;exitDx=0;exitDy=0;" parent="OjwI3aqR1hCVZbcka7N2-54" source="OjwI3aqR1hCVZbcka7N2-18" target="ffmA45xrEq2P1KVk74QQ-32" edge="1">
          <mxGeometry width="50" height="50" relative="1" as="geometry">
            <mxPoint x="2780" y="1040" as="sourcePoint" />
            <mxPoint x="2830" y="990" as="targetPoint" />
          </mxGeometry>
        </mxCell>
        <mxCell id="ffmA45xrEq2P1KVk74QQ-40" value="" style="endArrow=none;html=1;rounded=0;fontSize=12;startSize=8;endSize=8;curved=1;entryX=0.5;entryY=1;entryDx=0;entryDy=0;exitX=0.5;exitY=0;exitDx=0;exitDy=0;" parent="OjwI3aqR1hCVZbcka7N2-54" source="ffmA45xrEq2P1KVk74QQ-28" target="OjwI3aqR1hCVZbcka7N2-18" edge="1">
          <mxGeometry width="50" height="50" relative="1" as="geometry">
            <mxPoint x="2350" y="980" as="sourcePoint" />
            <mxPoint x="2400" y="930" as="targetPoint" />
          </mxGeometry>
        </mxCell>
        <mxCell id="ffmA45xrEq2P1KVk74QQ-48" value="implements" style="edgeLabel;html=1;align=center;verticalAlign=middle;resizable=0;points=[];fontSize=12;" parent="ffmA45xrEq2P1KVk74QQ-40" vertex="1" connectable="0">
          <mxGeometry x="-0.0143" y="-1" relative="1" as="geometry">
            <mxPoint as="offset" />
          </mxGeometry>
        </mxCell>
        <mxCell id="ffmA45xrEq2P1KVk74QQ-41" value="" style="endArrow=none;html=1;rounded=0;fontSize=12;startSize=8;endSize=8;curved=1;entryX=0.5;entryY=1;entryDx=0;entryDy=0;exitX=0.5;exitY=0;exitDx=0;exitDy=0;" parent="OjwI3aqR1hCVZbcka7N2-54" source="ffmA45xrEq2P1KVk74QQ-31" target="OjwI3aqR1hCVZbcka7N2-18" edge="1">
          <mxGeometry width="50" height="50" relative="1" as="geometry">
            <mxPoint x="2420" y="1010" as="sourcePoint" />
            <mxPoint x="2470" y="960" as="targetPoint" />
          </mxGeometry>
        </mxCell>
        <mxCell id="ffmA45xrEq2P1KVk74QQ-49" value="implements" style="edgeLabel;html=1;align=center;verticalAlign=middle;resizable=0;points=[];fontSize=12;" parent="ffmA45xrEq2P1KVk74QQ-41" vertex="1" connectable="0">
          <mxGeometry x="-0.0233" relative="1" as="geometry">
            <mxPoint y="-1" as="offset" />
          </mxGeometry>
        </mxCell>
        <mxCell id="ffmA45xrEq2P1KVk74QQ-42" value="" style="endArrow=none;html=1;rounded=0;fontSize=12;startSize=8;endSize=8;curved=1;entryX=0.5;entryY=1;entryDx=0;entryDy=0;exitX=0.5;exitY=0;exitDx=0;exitDy=0;" parent="OjwI3aqR1hCVZbcka7N2-54" source="ffmA45xrEq2P1KVk74QQ-29" target="OjwI3aqR1hCVZbcka7N2-18" edge="1">
          <mxGeometry width="50" height="50" relative="1" as="geometry">
            <mxPoint x="2530" y="1000" as="sourcePoint" />
            <mxPoint x="2580" y="950" as="targetPoint" />
          </mxGeometry>
        </mxCell>
        <mxCell id="ffmA45xrEq2P1KVk74QQ-50" value="implements" style="edgeLabel;html=1;align=center;verticalAlign=middle;resizable=0;points=[];fontSize=12;" parent="ffmA45xrEq2P1KVk74QQ-42" vertex="1" connectable="0">
          <mxGeometry x="-0.0868" y="2" relative="1" as="geometry">
            <mxPoint x="1" as="offset" />
          </mxGeometry>
        </mxCell>
        <mxCell id="ffmA45xrEq2P1KVk74QQ-43" value="" style="endArrow=none;html=1;rounded=0;fontSize=12;startSize=8;endSize=8;curved=1;entryX=0.5;entryY=1;entryDx=0;entryDy=0;exitX=0.5;exitY=0;exitDx=0;exitDy=0;" parent="OjwI3aqR1hCVZbcka7N2-54" source="ffmA45xrEq2P1KVk74QQ-30" target="OjwI3aqR1hCVZbcka7N2-18" edge="1">
          <mxGeometry width="50" height="50" relative="1" as="geometry">
            <mxPoint x="2730" y="980" as="sourcePoint" />
            <mxPoint x="2780" y="930" as="targetPoint" />
          </mxGeometry>
        </mxCell>
        <mxCell id="ffmA45xrEq2P1KVk74QQ-51" value="implements" style="edgeLabel;html=1;align=center;verticalAlign=middle;resizable=0;points=[];fontSize=12;" parent="ffmA45xrEq2P1KVk74QQ-43" vertex="1" connectable="0">
          <mxGeometry x="0.0034" y="-8" relative="1" as="geometry">
            <mxPoint as="offset" />
          </mxGeometry>
        </mxCell>
        <mxCell id="ffmA45xrEq2P1KVk74QQ-57" value="StoreProductManager" style="rounded=0;whiteSpace=wrap;html=1;fontSize=19;" parent="OjwI3aqR1hCVZbcka7N2-54" vertex="1">
          <mxGeometry x="2068.5" y="231.5" width="215" height="60" as="geometry" />
        </mxCell>
        <mxCell id="ffmA45xrEq2P1KVk74QQ-59" value="" style="endArrow=none;html=1;rounded=0;fontSize=12;startSize=8;endSize=8;curved=1;entryX=0;entryY=0.5;entryDx=0;entryDy=0;exitX=1;exitY=0.5;exitDx=0;exitDy=0;" parent="OjwI3aqR1hCVZbcka7N2-54" source="ffmA45xrEq2P1KVk74QQ-1" target="ffmA45xrEq2P1KVk74QQ-57" edge="1">
          <mxGeometry width="50" height="50" relative="1" as="geometry">
            <mxPoint x="1958.5" y="380.5" as="sourcePoint" />
            <mxPoint x="2008.5" y="330.5" as="targetPoint" />
          </mxGeometry>
        </mxCell>
        <mxCell id="ffmA45xrEq2P1KVk74QQ-61" value="implements" style="edgeLabel;html=1;align=center;verticalAlign=middle;resizable=0;points=[];fontSize=12;" parent="ffmA45xrEq2P1KVk74QQ-59" vertex="1" connectable="0">
          <mxGeometry x="-0.0799" y="3" relative="1" as="geometry">
            <mxPoint as="offset" />
          </mxGeometry>
        </mxCell>
        <mxCell id="ffmA45xrEq2P1KVk74QQ-71" value="" style="endArrow=classic;html=1;rounded=0;fontSize=12;startSize=8;endSize=8;curved=1;exitX=0.5;exitY=1;exitDx=0;exitDy=0;entryX=0.5;entryY=0;entryDx=0;entryDy=0;" parent="OjwI3aqR1hCVZbcka7N2-54" source="OjwI3aqR1hCVZbcka7N2-8" target="OjwI3aqR1hCVZbcka7N2-229" edge="1">
          <mxGeometry width="50" height="50" relative="1" as="geometry">
            <mxPoint x="3943" y="809.5" as="sourcePoint" />
            <mxPoint x="3993" y="759.5" as="targetPoint" />
          </mxGeometry>
        </mxCell>
        <mxCell id="ffmA45xrEq2P1KVk74QQ-72" value="extends" style="edgeLabel;html=1;align=center;verticalAlign=middle;resizable=0;points=[];fontSize=12;" parent="ffmA45xrEq2P1KVk74QQ-71" vertex="1" connectable="0">
          <mxGeometry x="0.007" y="2" relative="1" as="geometry">
            <mxPoint y="1" as="offset" />
          </mxGeometry>
        </mxCell>
        <mxCell id="ffmA45xrEq2P1KVk74QQ-73" value="AuctionKey" style="rounded=0;whiteSpace=wrap;html=1;fontSize=19;" parent="OjwI3aqR1hCVZbcka7N2-54" vertex="1">
          <mxGeometry x="631" y="720" width="127" height="60" as="geometry" />
        </mxCell>
        <mxCell id="ffmA45xrEq2P1KVk74QQ-74" value="BidKey" style="rounded=0;whiteSpace=wrap;html=1;fontSize=19;" parent="OjwI3aqR1hCVZbcka7N2-54" vertex="1">
          <mxGeometry x="471" y="720" width="127" height="60" as="geometry" />
        </mxCell>
        <mxCell id="ffmA45xrEq2P1KVk74QQ-75" value="**Bid" style="rounded=0;whiteSpace=wrap;html=1;fontSize=19;" parent="OjwI3aqR1hCVZbcka7N2-54" vertex="1">
          <mxGeometry x="299" y="720" width="127" height="60" as="geometry" />
        </mxCell>
        <mxCell id="ffmA45xrEq2P1KVk74QQ-76" value="**offer" style="rounded=0;whiteSpace=wrap;html=1;fontSize=19;" parent="OjwI3aqR1hCVZbcka7N2-54" vertex="1">
          <mxGeometry x="791" y="720" width="127" height="60" as="geometry" />
        </mxCell>
        <mxCell id="ffmA45xrEq2P1KVk74QQ-77" value="**PurchasedProduct" style="rounded=0;whiteSpace=wrap;html=1;fontSize=19;" parent="OjwI3aqR1hCVZbcka7N2-54" vertex="1">
          <mxGeometry x="181" y="430" width="189" height="68.5" as="geometry" />
        </mxCell>
        <mxCell id="ffmA45xrEq2P1KVk74QQ-78" value="**Purchase" style="rounded=0;whiteSpace=wrap;html=1;fontSize=19;" parent="OjwI3aqR1hCVZbcka7N2-54" vertex="1">
          <mxGeometry x="481" y="440" width="180" height="50" as="geometry" />
        </mxCell>
        <mxCell id="ffmA45xrEq2P1KVk74QQ-79" value="" style="endArrow=none;html=1;rounded=0;fontSize=12;startSize=8;endSize=8;curved=1;entryX=0.5;entryY=1;entryDx=0;entryDy=0;exitX=0.5;exitY=0;exitDx=0;exitDy=0;" parent="OjwI3aqR1hCVZbcka7N2-54" source="ffmA45xrEq2P1KVk74QQ-78" target="bWdd-FNuYPZd20RBbe-Y-193" edge="1">
          <mxGeometry width="50" height="50" relative="1" as="geometry">
            <mxPoint x="556" y="215.5" as="sourcePoint" />
            <mxPoint x="606" y="165.5" as="targetPoint" />
          </mxGeometry>
        </mxCell>
        <mxCell id="ffmA45xrEq2P1KVk74QQ-80" value="" style="endArrow=none;html=1;rounded=0;fontSize=12;startSize=8;endSize=8;curved=1;entryX=0.5;entryY=1;entryDx=0;entryDy=0;exitX=0.5;exitY=0;exitDx=0;exitDy=0;" parent="OjwI3aqR1hCVZbcka7N2-54" source="bWdd-FNuYPZd20RBbe-Y-91" target="ffmA45xrEq2P1KVk74QQ-78" edge="1">
          <mxGeometry width="50" height="50" relative="1" as="geometry">
            <mxPoint x="321" y="500" as="sourcePoint" />
            <mxPoint x="371" y="450" as="targetPoint" />
          </mxGeometry>
        </mxCell>
        <mxCell id="ffmA45xrEq2P1KVk74QQ-81" value="" style="endArrow=none;html=1;rounded=0;fontSize=12;startSize=8;endSize=8;curved=1;entryX=0.5;entryY=1;entryDx=0;entryDy=0;exitX=0.5;exitY=0;exitDx=0;exitDy=0;" parent="OjwI3aqR1hCVZbcka7N2-54" source="bWdd-FNuYPZd20RBbe-Y-93" target="ffmA45xrEq2P1KVk74QQ-78" edge="1">
          <mxGeometry width="50" height="50" relative="1" as="geometry">
            <mxPoint x="238" y="579" as="sourcePoint" />
            <mxPoint x="581" y="500" as="targetPoint" />
          </mxGeometry>
        </mxCell>
        <mxCell id="ffmA45xrEq2P1KVk74QQ-82" value="" style="endArrow=none;html=1;rounded=0;fontSize=12;startSize=8;endSize=8;curved=1;entryX=0.5;entryY=1;entryDx=0;entryDy=0;exitX=0.5;exitY=0;exitDx=0;exitDy=0;" parent="OjwI3aqR1hCVZbcka7N2-54" source="bWdd-FNuYPZd20RBbe-Y-95" target="ffmA45xrEq2P1KVk74QQ-78" edge="1">
          <mxGeometry width="50" height="50" relative="1" as="geometry">
            <mxPoint x="480" y="574" as="sourcePoint" />
            <mxPoint x="581" y="500" as="targetPoint" />
          </mxGeometry>
        </mxCell>
        <mxCell id="ffmA45xrEq2P1KVk74QQ-83" value="" style="endArrow=none;html=1;rounded=0;fontSize=12;startSize=8;endSize=8;curved=1;entryX=0.5;entryY=1;entryDx=0;entryDy=0;exitX=0.5;exitY=0;exitDx=0;exitDy=0;" parent="OjwI3aqR1hCVZbcka7N2-54" source="bWdd-FNuYPZd20RBbe-Y-97" target="ffmA45xrEq2P1KVk74QQ-78" edge="1">
          <mxGeometry width="50" height="50" relative="1" as="geometry">
            <mxPoint x="700" y="579" as="sourcePoint" />
            <mxPoint x="581" y="500" as="targetPoint" />
          </mxGeometry>
        </mxCell>
        <mxCell id="ffmA45xrEq2P1KVk74QQ-88" value="" style="endArrow=none;html=1;rounded=0;fontSize=12;startSize=8;endSize=8;curved=1;entryX=0.5;entryY=1;entryDx=0;entryDy=0;exitX=0.5;exitY=0;exitDx=0;exitDy=0;" parent="OjwI3aqR1hCVZbcka7N2-54" source="ffmA45xrEq2P1KVk74QQ-75" target="bWdd-FNuYPZd20RBbe-Y-93" edge="1">
          <mxGeometry width="50" height="50" relative="1" as="geometry">
            <mxPoint x="131" y="820" as="sourcePoint" />
            <mxPoint x="181" y="770" as="targetPoint" />
          </mxGeometry>
        </mxCell>
        <mxCell id="ffmA45xrEq2P1KVk74QQ-89" value="" style="endArrow=none;html=1;rounded=0;fontSize=12;startSize=8;endSize=8;curved=1;entryX=0.5;entryY=1;entryDx=0;entryDy=0;exitX=0.5;exitY=0;exitDx=0;exitDy=0;" parent="OjwI3aqR1hCVZbcka7N2-54" source="ffmA45xrEq2P1KVk74QQ-74" target="bWdd-FNuYPZd20RBbe-Y-93" edge="1">
          <mxGeometry width="50" height="50" relative="1" as="geometry">
            <mxPoint x="373" y="730" as="sourcePoint" />
            <mxPoint x="480" y="667" as="targetPoint" />
          </mxGeometry>
        </mxCell>
        <mxCell id="ffmA45xrEq2P1KVk74QQ-91" value="" style="endArrow=none;html=1;rounded=0;fontSize=12;startSize=8;endSize=8;curved=1;entryX=0.5;entryY=1;entryDx=0;entryDy=0;exitX=0.5;exitY=0;exitDx=0;exitDy=0;" parent="OjwI3aqR1hCVZbcka7N2-54" source="ffmA45xrEq2P1KVk74QQ-73" target="bWdd-FNuYPZd20RBbe-Y-95" edge="1">
          <mxGeometry width="50" height="50" relative="1" as="geometry">
            <mxPoint x="661" y="720" as="sourcePoint" />
            <mxPoint x="711" y="670" as="targetPoint" />
          </mxGeometry>
        </mxCell>
        <mxCell id="ffmA45xrEq2P1KVk74QQ-92" value="" style="endArrow=none;html=1;rounded=0;fontSize=12;startSize=8;endSize=8;curved=1;entryX=0.5;entryY=1;entryDx=0;entryDy=0;exitX=0.5;exitY=0;exitDx=0;exitDy=0;" parent="OjwI3aqR1hCVZbcka7N2-54" source="ffmA45xrEq2P1KVk74QQ-76" target="bWdd-FNuYPZd20RBbe-Y-95" edge="1">
          <mxGeometry width="50" height="50" relative="1" as="geometry">
            <mxPoint x="781" y="720" as="sourcePoint" />
            <mxPoint x="831" y="670" as="targetPoint" />
          </mxGeometry>
        </mxCell>
        <mxCell id="ffmA45xrEq2P1KVk74QQ-94" value="" style="endArrow=none;html=1;rounded=0;fontSize=12;startSize=8;endSize=8;curved=1;exitX=1;exitY=0.5;exitDx=0;exitDy=0;entryX=0;entryY=0.5;entryDx=0;entryDy=0;" parent="OjwI3aqR1hCVZbcka7N2-54" source="ffmA45xrEq2P1KVk74QQ-77" target="ffmA45xrEq2P1KVk74QQ-78" edge="1">
          <mxGeometry width="50" height="50" relative="1" as="geometry">
            <mxPoint x="371" y="490" as="sourcePoint" />
            <mxPoint x="421" y="440" as="targetPoint" />
          </mxGeometry>
        </mxCell>
        <mxCell id="HVDQ8SukldScqDi56Urr-10" value="IListingReposiroty" style="rounded=0;whiteSpace=wrap;html=1;fontSize=19;" parent="OjwI3aqR1hCVZbcka7N2-54" vertex="1">
          <mxGeometry x="2058.5" y="75.5" width="215" height="60" as="geometry" />
        </mxCell>
        <mxCell id="HVDQ8SukldScqDi56Urr-12" value="" style="endArrow=none;html=1;rounded=0;fontSize=12;startSize=8;endSize=8;curved=1;entryX=0.5;entryY=0;entryDx=0;entryDy=0;" parent="OjwI3aqR1hCVZbcka7N2-54" target="ffmA45xrEq2P1KVk74QQ-57" edge="1">
          <mxGeometry width="50" height="50" relative="1" as="geometry">
            <mxPoint x="2176.5" y="132.5" as="sourcePoint" />
            <mxPoint x="1817.5" y="260.5" as="targetPoint" />
          </mxGeometry>
        </mxCell>
        <mxCell id="HVDQ8SukldScqDi56Urr-14" value="" style="endArrow=none;html=1;rounded=0;fontSize=12;startSize=8;endSize=8;curved=1;entryX=1;entryY=0.5;entryDx=0;entryDy=0;exitX=0;exitY=0.5;exitDx=0;exitDy=0;" parent="OjwI3aqR1hCVZbcka7N2-54" source="OjwI3aqR1hCVZbcka7N2-5" target="HVDQ8SukldScqDi56Urr-10" edge="1">
          <mxGeometry width="50" height="50" relative="1" as="geometry">
            <mxPoint x="2168.5" y="180.5" as="sourcePoint" />
            <mxPoint x="2168.5" y="279.5" as="targetPoint" />
          </mxGeometry>
        </mxCell>
        <mxCell id="JVG38k8_dwU8XXT75InA-27" value="IRoleRepository" style="rounded=0;whiteSpace=wrap;html=1;fontSize=19;" parent="OjwI3aqR1hCVZbcka7N2-54" vertex="1">
          <mxGeometry x="3052" y="90.5" width="180" height="50" as="geometry" />
        </mxCell>
        <mxCell id="JVG38k8_dwU8XXT75InA-31" value="ISuspensionRepository" style="rounded=0;whiteSpace=wrap;html=1;fontSize=19;" parent="OjwI3aqR1hCVZbcka7N2-54" vertex="1">
          <mxGeometry x="4270" y="100" width="230" height="50" as="geometry" />
        </mxCell>
        <mxCell id="JVG38k8_dwU8XXT75InA-34" value="INotificationRepository" style="rounded=0;whiteSpace=wrap;html=1;fontSize=19;" parent="OjwI3aqR1hCVZbcka7N2-54" vertex="1">
          <mxGeometry x="4630" y="102.5" width="230" height="50" as="geometry" />
        </mxCell>
        <mxCell id="JVG38k8_dwU8XXT75InA-52" value="Notification" style="rounded=0;whiteSpace=wrap;html=1;fontSize=19;" parent="OjwI3aqR1hCVZbcka7N2-54" vertex="1">
          <mxGeometry x="4674" y="352" width="140" height="50" as="geometry" />
        </mxCell>
        <mxCell id="JVG38k8_dwU8XXT75InA-54" value="" style="endArrow=classic;html=1;rounded=0;exitX=0;exitY=0.5;exitDx=0;exitDy=0;entryX=1;entryY=0.5;entryDx=0;entryDy=0;" parent="OjwI3aqR1hCVZbcka7N2-54" source="JVG38k8_dwU8XXT75InA-31" target="OjwI3aqR1hCVZbcka7N2-294" edge="1">
          <mxGeometry width="50" height="50" relative="1" as="geometry">
            <mxPoint x="4080" y="269.5" as="sourcePoint" />
            <mxPoint x="4130" y="219.5" as="targetPoint" />
          </mxGeometry>
        </mxCell>
        <mxCell id="JVG38k8_dwU8XXT75InA-56" value="" style="endArrow=none;html=1;rounded=0;exitX=0.5;exitY=1;exitDx=0;exitDy=0;entryX=0.5;entryY=0;entryDx=0;entryDy=0;" parent="OjwI3aqR1hCVZbcka7N2-54" source="JVG38k8_dwU8XXT75InA-31" target="OjwI3aqR1hCVZbcka7N2-6" edge="1">
          <mxGeometry width="50" height="50" relative="1" as="geometry">
            <mxPoint x="4100" y="269.5" as="sourcePoint" />
            <mxPoint x="4150" y="219.5" as="targetPoint" />
          </mxGeometry>
        </mxCell>
        <mxCell id="JVG38k8_dwU8XXT75InA-57" value="Role" style="rounded=0;whiteSpace=wrap;html=1;fontSize=19;" parent="OjwI3aqR1hCVZbcka7N2-54" vertex="1">
          <mxGeometry x="3072" y="221.5" width="140" height="61.5" as="geometry" />
        </mxCell>
        <mxCell id="JVG38k8_dwU8XXT75InA-58" value="" style="endArrow=none;html=1;rounded=0;exitX=0.5;exitY=1;exitDx=0;exitDy=0;entryX=0.5;entryY=0;entryDx=0;entryDy=0;" parent="OjwI3aqR1hCVZbcka7N2-54" source="JVG38k8_dwU8XXT75InA-27" target="JVG38k8_dwU8XXT75InA-57" edge="1">
          <mxGeometry width="50" height="50" relative="1" as="geometry">
            <mxPoint x="2772" y="261.5" as="sourcePoint" />
            <mxPoint x="2822" y="211.5" as="targetPoint" />
          </mxGeometry>
        </mxCell>
        <mxCell id="JVG38k8_dwU8XXT75InA-59" value="Founder" style="rounded=0;whiteSpace=wrap;html=1;fontSize=19;" parent="OjwI3aqR1hCVZbcka7N2-54" vertex="1">
          <mxGeometry x="2902" y="537" width="140" height="61.5" as="geometry" />
        </mxCell>
        <mxCell id="JVG38k8_dwU8XXT75InA-60" value="Owner" style="rounded=0;whiteSpace=wrap;html=1;fontSize=19;" parent="OjwI3aqR1hCVZbcka7N2-54" vertex="1">
          <mxGeometry x="3072" y="540" width="140" height="61.5" as="geometry" />
        </mxCell>
        <mxCell id="JVG38k8_dwU8XXT75InA-61" value="Manager" style="rounded=0;whiteSpace=wrap;html=1;fontSize=19;" parent="OjwI3aqR1hCVZbcka7N2-54" vertex="1">
          <mxGeometry x="3242" y="540" width="140" height="61.5" as="geometry" />
        </mxCell>
        <mxCell id="OjwI3aqR1hCVZbcka7N2-236" value="CompositeDisccountPolicy" style="rounded=0;whiteSpace=wrap;html=1;fontSize=19;" parent="OjwI3aqR1hCVZbcka7N2-54" vertex="1">
          <mxGeometry x="794" y="875" width="230" height="65" as="geometry" />
        </mxCell>
        <mxCell id="JVG38k8_dwU8XXT75InA-66" value="ConditionalDiscountPolicy" style="rounded=0;whiteSpace=wrap;html=1;fontSize=19;" parent="OjwI3aqR1hCVZbcka7N2-54" vertex="1">
          <mxGeometry x="1047.5" y="873" width="240" height="67" as="geometry" />
        </mxCell>
        <mxCell id="JVG38k8_dwU8XXT75InA-69" value="" style="endArrow=none;html=1;rounded=0;fontSize=12;startSize=8;endSize=8;curved=1;exitX=0.5;exitY=0;exitDx=0;exitDy=0;entryX=0.5;entryY=1;entryDx=0;entryDy=0;" parent="OjwI3aqR1hCVZbcka7N2-54" source="JVG38k8_dwU8XXT75InA-66" target="OjwI3aqR1hCVZbcka7N2-14" edge="1">
          <mxGeometry width="50" height="50" relative="1" as="geometry">
            <mxPoint x="1771" y="1245" as="sourcePoint" />
            <mxPoint x="1564" y="1065" as="targetPoint" />
          </mxGeometry>
        </mxCell>
        <mxCell id="JVG38k8_dwU8XXT75InA-70" value="implemets" style="edgeLabel;html=1;align=center;verticalAlign=middle;resizable=0;points=[];fontSize=12;" parent="JVG38k8_dwU8XXT75InA-69" vertex="1" connectable="0">
          <mxGeometry x="0.0016" relative="1" as="geometry">
            <mxPoint as="offset" />
          </mxGeometry>
        </mxCell>
        <mxCell id="JVG38k8_dwU8XXT75InA-71" value="" style="endArrow=none;html=1;rounded=0;fontSize=12;startSize=8;endSize=8;curved=1;exitX=0.5;exitY=0;exitDx=0;exitDy=0;entryX=0.5;entryY=1;entryDx=0;entryDy=0;" parent="OjwI3aqR1hCVZbcka7N2-54" source="OjwI3aqR1hCVZbcka7N2-236" target="OjwI3aqR1hCVZbcka7N2-14" edge="1">
          <mxGeometry width="50" height="50" relative="1" as="geometry">
            <mxPoint x="1354" y="898" as="sourcePoint" />
            <mxPoint x="1594" y="675" as="targetPoint" />
          </mxGeometry>
        </mxCell>
        <mxCell id="JVG38k8_dwU8XXT75InA-72" value="implemets" style="edgeLabel;html=1;align=center;verticalAlign=middle;resizable=0;points=[];fontSize=12;" parent="JVG38k8_dwU8XXT75InA-71" vertex="1" connectable="0">
          <mxGeometry x="0.0016" relative="1" as="geometry">
            <mxPoint as="offset" />
          </mxGeometry>
        </mxCell>
        <mxCell id="JVG38k8_dwU8XXT75InA-73" value="DiscountCombinationType" style="rounded=0;whiteSpace=wrap;html=1;fontSize=19;" parent="OjwI3aqR1hCVZbcka7N2-54" vertex="1">
          <mxGeometry x="710" y="1040" width="234" height="70" as="geometry" />
        </mxCell>
        <mxCell id="JVG38k8_dwU8XXT75InA-76" value="Sum" style="rounded=0;whiteSpace=wrap;html=1;fontSize=19;" parent="OjwI3aqR1hCVZbcka7N2-54" vertex="1">
          <mxGeometry x="740" y="1205" width="70" height="70" as="geometry" />
        </mxCell>
        <mxCell id="JVG38k8_dwU8XXT75InA-77" value="Maximum" style="rounded=0;whiteSpace=wrap;html=1;fontSize=19;" parent="OjwI3aqR1hCVZbcka7N2-54" vertex="1">
          <mxGeometry x="840" y="1205" width="101.5" height="70" as="geometry" />
        </mxCell>
        <mxCell id="JVG38k8_dwU8XXT75InA-78" value="" style="endArrow=none;html=1;rounded=0;fontSize=12;startSize=8;endSize=8;curved=1;entryX=0.5;entryY=1;entryDx=0;entryDy=0;exitX=0.5;exitY=0;exitDx=0;exitDy=0;" parent="OjwI3aqR1hCVZbcka7N2-54" source="JVG38k8_dwU8XXT75InA-76" target="JVG38k8_dwU8XXT75InA-73" edge="1">
          <mxGeometry width="50" height="50" relative="1" as="geometry">
            <mxPoint x="1887" y="1405" as="sourcePoint" />
            <mxPoint x="1754" y="1215" as="targetPoint" />
          </mxGeometry>
        </mxCell>
        <mxCell id="JVG38k8_dwU8XXT75InA-79" value="Enum" style="edgeLabel;html=1;align=center;verticalAlign=middle;resizable=0;points=[];fontSize=12;" parent="JVG38k8_dwU8XXT75InA-78" vertex="1" connectable="0">
          <mxGeometry x="0.0468" relative="1" as="geometry">
            <mxPoint y="1" as="offset" />
          </mxGeometry>
        </mxCell>
        <mxCell id="JVG38k8_dwU8XXT75InA-80" value="" style="endArrow=none;html=1;rounded=0;fontSize=12;startSize=8;endSize=8;curved=1;entryX=0.5;entryY=1;entryDx=0;entryDy=0;exitX=0.5;exitY=0;exitDx=0;exitDy=0;" parent="OjwI3aqR1hCVZbcka7N2-54" source="JVG38k8_dwU8XXT75InA-77" target="JVG38k8_dwU8XXT75InA-73" edge="1">
          <mxGeometry width="50" height="50" relative="1" as="geometry">
            <mxPoint x="1744" y="1240" as="sourcePoint" />
            <mxPoint x="1825" y="1165" as="targetPoint" />
          </mxGeometry>
        </mxCell>
        <mxCell id="JVG38k8_dwU8XXT75InA-81" value="Enum" style="edgeLabel;html=1;align=center;verticalAlign=middle;resizable=0;points=[];fontSize=12;" parent="JVG38k8_dwU8XXT75InA-80" vertex="1" connectable="0">
          <mxGeometry x="0.0468" relative="1" as="geometry">
            <mxPoint y="1" as="offset" />
          </mxGeometry>
        </mxCell>
        <mxCell id="JVG38k8_dwU8XXT75InA-82" value="DiscountTarget&lt;span style=&quot;background-color: transparent; color: light-dark(rgb(0, 0, 0), rgb(255, 255, 255));&quot;&gt;Type&lt;/span&gt;" style="rounded=0;whiteSpace=wrap;html=1;fontSize=19;" parent="OjwI3aqR1hCVZbcka7N2-54" vertex="1">
          <mxGeometry x="1782" y="1035" width="234" height="70" as="geometry" />
        </mxCell>
        <mxCell id="JVG38k8_dwU8XXT75InA-83" value="Store" style="rounded=0;whiteSpace=wrap;html=1;fontSize=19;" parent="OjwI3aqR1hCVZbcka7N2-54" vertex="1">
          <mxGeometry x="1760" y="1199.5" width="70" height="70" as="geometry" />
        </mxCell>
        <mxCell id="JVG38k8_dwU8XXT75InA-84" value="Category" style="rounded=0;whiteSpace=wrap;html=1;fontSize=19;" parent="OjwI3aqR1hCVZbcka7N2-54" vertex="1">
          <mxGeometry x="1852" y="1199.5" width="96" height="70" as="geometry" />
        </mxCell>
        <mxCell id="JVG38k8_dwU8XXT75InA-85" value="Product" style="rounded=0;whiteSpace=wrap;html=1;fontSize=19;" parent="OjwI3aqR1hCVZbcka7N2-54" vertex="1">
          <mxGeometry x="1972.5" y="1199.5" width="96" height="70" as="geometry" />
        </mxCell>
        <mxCell id="JVG38k8_dwU8XXT75InA-86" value="" style="endArrow=none;html=1;rounded=0;fontSize=12;startSize=8;endSize=8;curved=1;entryX=0.5;entryY=1;entryDx=0;entryDy=0;exitX=0.5;exitY=0;exitDx=0;exitDy=0;" parent="OjwI3aqR1hCVZbcka7N2-54" source="JVG38k8_dwU8XXT75InA-83" target="JVG38k8_dwU8XXT75InA-82" edge="1">
          <mxGeometry width="50" height="50" relative="1" as="geometry">
            <mxPoint x="1694" y="1220" as="sourcePoint" />
            <mxPoint x="1815" y="1125" as="targetPoint" />
          </mxGeometry>
        </mxCell>
        <mxCell id="JVG38k8_dwU8XXT75InA-87" value="Enum" style="edgeLabel;html=1;align=center;verticalAlign=middle;resizable=0;points=[];fontSize=12;" parent="JVG38k8_dwU8XXT75InA-86" vertex="1" connectable="0">
          <mxGeometry x="0.0468" relative="1" as="geometry">
            <mxPoint y="1" as="offset" />
          </mxGeometry>
        </mxCell>
        <mxCell id="JVG38k8_dwU8XXT75InA-88" value="" style="endArrow=none;html=1;rounded=0;fontSize=12;startSize=8;endSize=8;curved=1;entryX=0.5;entryY=1;entryDx=0;entryDy=0;exitX=0.5;exitY=0;exitDx=0;exitDy=0;" parent="OjwI3aqR1hCVZbcka7N2-54" source="JVG38k8_dwU8XXT75InA-84" target="JVG38k8_dwU8XXT75InA-82" edge="1">
          <mxGeometry width="50" height="50" relative="1" as="geometry">
            <mxPoint x="1914" y="1100" as="sourcePoint" />
            <mxPoint x="2035" y="1005" as="targetPoint" />
          </mxGeometry>
        </mxCell>
        <mxCell id="JVG38k8_dwU8XXT75InA-89" value="Enum" style="edgeLabel;html=1;align=center;verticalAlign=middle;resizable=0;points=[];fontSize=12;" parent="JVG38k8_dwU8XXT75InA-88" vertex="1" connectable="0">
          <mxGeometry x="0.0468" relative="1" as="geometry">
            <mxPoint y="1" as="offset" />
          </mxGeometry>
        </mxCell>
        <mxCell id="JVG38k8_dwU8XXT75InA-90" value="" style="endArrow=none;html=1;rounded=0;fontSize=12;startSize=8;endSize=8;curved=1;entryX=0.5;entryY=1;entryDx=0;entryDy=0;exitX=0.5;exitY=0;exitDx=0;exitDy=0;" parent="OjwI3aqR1hCVZbcka7N2-54" source="JVG38k8_dwU8XXT75InA-85" target="JVG38k8_dwU8XXT75InA-82" edge="1">
          <mxGeometry width="50" height="50" relative="1" as="geometry">
            <mxPoint x="1944" y="1070" as="sourcePoint" />
            <mxPoint x="2065" y="975" as="targetPoint" />
          </mxGeometry>
        </mxCell>
        <mxCell id="JVG38k8_dwU8XXT75InA-91" value="Enum" style="edgeLabel;html=1;align=center;verticalAlign=middle;resizable=0;points=[];fontSize=12;" parent="JVG38k8_dwU8XXT75InA-90" vertex="1" connectable="0">
          <mxGeometry x="0.0468" relative="1" as="geometry">
            <mxPoint y="1" as="offset" />
          </mxGeometry>
        </mxCell>
        <mxCell id="JVG38k8_dwU8XXT75InA-94" value="" style="endArrow=none;html=1;rounded=0;entryX=0.5;entryY=1;entryDx=0;entryDy=0;exitX=0.5;exitY=0;exitDx=0;exitDy=0;" parent="OjwI3aqR1hCVZbcka7N2-54" source="JVG38k8_dwU8XXT75InA-82" target="ffmA45xrEq2P1KVk74QQ-11" edge="1">
          <mxGeometry width="50" height="50" relative="1" as="geometry">
            <mxPoint x="1700" y="835" as="sourcePoint" />
            <mxPoint x="1750" y="785" as="targetPoint" />
          </mxGeometry>
        </mxCell>
        <mxCell id="JVG38k8_dwU8XXT75InA-95" value="" style="endArrow=none;html=1;rounded=0;exitX=0.5;exitY=1;exitDx=0;exitDy=0;entryX=0.5;entryY=0;entryDx=0;entryDy=0;" parent="OjwI3aqR1hCVZbcka7N2-54" source="OjwI3aqR1hCVZbcka7N2-236" target="JVG38k8_dwU8XXT75InA-73" edge="1">
          <mxGeometry width="50" height="50" relative="1" as="geometry">
            <mxPoint x="1500" y="755" as="sourcePoint" />
            <mxPoint x="1550" y="705" as="targetPoint" />
          </mxGeometry>
        </mxCell>
        <mxCell id="JVG38k8_dwU8XXT75InA-96" value="" style="endArrow=none;html=1;rounded=0;fontSize=12;startSize=8;endSize=8;curved=1;exitX=0.5;exitY=1;exitDx=0;exitDy=0;entryX=0.5;entryY=0;entryDx=0;entryDy=0;" parent="OjwI3aqR1hCVZbcka7N2-54" source="JVG38k8_dwU8XXT75InA-57" target="JVG38k8_dwU8XXT75InA-59" edge="1">
          <mxGeometry width="50" height="50" relative="1" as="geometry">
            <mxPoint x="2972" y="790" as="sourcePoint" />
            <mxPoint x="3076" y="695" as="targetPoint" />
          </mxGeometry>
        </mxCell>
        <mxCell id="JVG38k8_dwU8XXT75InA-97" value="Enum" style="edgeLabel;html=1;align=center;verticalAlign=middle;resizable=0;points=[];fontSize=12;" parent="JVG38k8_dwU8XXT75InA-96" vertex="1" connectable="0">
          <mxGeometry x="0.0468" relative="1" as="geometry">
            <mxPoint y="1" as="offset" />
          </mxGeometry>
        </mxCell>
        <mxCell id="JVG38k8_dwU8XXT75InA-98" value="" style="endArrow=none;html=1;rounded=0;fontSize=12;startSize=8;endSize=8;curved=1;entryX=0.5;entryY=1;entryDx=0;entryDy=0;exitX=0.5;exitY=0;exitDx=0;exitDy=0;" parent="OjwI3aqR1hCVZbcka7N2-54" source="JVG38k8_dwU8XXT75InA-60" target="JVG38k8_dwU8XXT75InA-57" edge="1">
          <mxGeometry width="50" height="50" relative="1" as="geometry">
            <mxPoint x="3122" y="780" as="sourcePoint" />
            <mxPoint x="3226" y="685" as="targetPoint" />
          </mxGeometry>
        </mxCell>
        <mxCell id="JVG38k8_dwU8XXT75InA-99" value="Enum" style="edgeLabel;html=1;align=center;verticalAlign=middle;resizable=0;points=[];fontSize=12;" parent="JVG38k8_dwU8XXT75InA-98" vertex="1" connectable="0">
          <mxGeometry x="0.0468" relative="1" as="geometry">
            <mxPoint y="1" as="offset" />
          </mxGeometry>
        </mxCell>
        <mxCell id="JVG38k8_dwU8XXT75InA-102" value="" style="endArrow=none;html=1;rounded=0;exitX=1;exitY=0.5;exitDx=0;exitDy=0;entryX=0;entryY=0.5;entryDx=0;entryDy=0;" parent="OjwI3aqR1hCVZbcka7N2-54" source="ffmA45xrEq2P1KVk74QQ-12" target="OjwI3aqR1hCVZbcka7N2-14" edge="1">
          <mxGeometry width="50" height="50" relative="1" as="geometry">
            <mxPoint x="2120" y="575" as="sourcePoint" />
            <mxPoint x="2170" y="525" as="targetPoint" />
          </mxGeometry>
        </mxCell>
        <mxCell id="JVG38k8_dwU8XXT75InA-103" value="" style="endArrow=none;html=1;rounded=0;entryX=0.5;entryY=1;entryDx=0;entryDy=0;exitX=0.5;exitY=0;exitDx=0;exitDy=0;" parent="OjwI3aqR1hCVZbcka7N2-54" source="JVG38k8_dwU8XXT75InA-52" target="JVG38k8_dwU8XXT75InA-34" edge="1">
          <mxGeometry width="50" height="50" relative="1" as="geometry">
            <mxPoint x="4070" y="397" as="sourcePoint" />
            <mxPoint x="4120" y="347" as="targetPoint" />
          </mxGeometry>
        </mxCell>
        <mxCell id="JVG38k8_dwU8XXT75InA-104" value="**MinPricePurchasePolicy" style="rounded=0;whiteSpace=wrap;html=1;fontSize=19;" parent="OjwI3aqR1hCVZbcka7N2-54" vertex="1">
          <mxGeometry x="2410" y="1040" width="220" height="60" as="geometry" />
        </mxCell>
        <mxCell id="JVG38k8_dwU8XXT75InA-105" value="" style="endArrow=none;html=1;rounded=0;fontSize=12;startSize=8;endSize=8;curved=1;entryX=0.5;entryY=1;entryDx=0;entryDy=0;exitX=0.5;exitY=0;exitDx=0;exitDy=0;" parent="OjwI3aqR1hCVZbcka7N2-54" source="JVG38k8_dwU8XXT75InA-104" target="OjwI3aqR1hCVZbcka7N2-18" edge="1">
          <mxGeometry width="50" height="50" relative="1" as="geometry">
            <mxPoint x="2690" y="1365" as="sourcePoint" />
            <mxPoint x="3164" y="1165" as="targetPoint" />
          </mxGeometry>
        </mxCell>
        <mxCell id="JVG38k8_dwU8XXT75InA-106" value="implements" style="edgeLabel;html=1;align=center;verticalAlign=middle;resizable=0;points=[];fontSize=12;" parent="JVG38k8_dwU8XXT75InA-105" vertex="1" connectable="0">
          <mxGeometry x="-0.0143" y="-1" relative="1" as="geometry">
            <mxPoint as="offset" />
          </mxGeometry>
        </mxCell>
        <mxCell id="JVG38k8_dwU8XXT75InA-107" value="DiscountCondition" style="rounded=0;whiteSpace=wrap;html=1;fontSize=19;" parent="OjwI3aqR1hCVZbcka7N2-54" vertex="1">
          <mxGeometry x="1074.25" y="1040" width="186.5" height="70" as="geometry" />
        </mxCell>
        <mxCell id="JVG38k8_dwU8XXT75InA-108" value="BasketTotalCondition" style="rounded=0;whiteSpace=wrap;html=1;fontSize=19;" parent="OjwI3aqR1hCVZbcka7N2-54" vertex="1">
          <mxGeometry x="852" y="1345" width="200" height="70" as="geometry" />
        </mxCell>
        <mxCell id="JVG38k8_dwU8XXT75InA-110" value="CategoryQuantityCondition" style="rounded=0;whiteSpace=wrap;html=1;fontSize=19;" parent="OjwI3aqR1hCVZbcka7N2-54" vertex="1">
          <mxGeometry x="1072" y="1345" width="250" height="70" as="geometry" />
        </mxCell>
        <mxCell id="JVG38k8_dwU8XXT75InA-111" value="" style="endArrow=none;html=1;rounded=0;fontSize=12;startSize=8;endSize=8;curved=1;exitX=0.5;exitY=0;exitDx=0;exitDy=0;entryX=0.5;entryY=1;entryDx=0;entryDy=0;" parent="OjwI3aqR1hCVZbcka7N2-54" source="JVG38k8_dwU8XXT75InA-108" target="JVG38k8_dwU8XXT75InA-107" edge="1">
          <mxGeometry width="50" height="50" relative="1" as="geometry">
            <mxPoint x="1410" y="1390" as="sourcePoint" />
            <mxPoint x="2101" y="1195" as="targetPoint" />
          </mxGeometry>
        </mxCell>
        <mxCell id="JVG38k8_dwU8XXT75InA-112" value="implemets" style="edgeLabel;html=1;align=center;verticalAlign=middle;resizable=0;points=[];fontSize=12;" parent="JVG38k8_dwU8XXT75InA-111" vertex="1" connectable="0">
          <mxGeometry x="0.0016" relative="1" as="geometry">
            <mxPoint as="offset" />
          </mxGeometry>
        </mxCell>
        <mxCell id="JVG38k8_dwU8XXT75InA-113" value="" style="endArrow=none;html=1;rounded=0;fontSize=12;startSize=8;endSize=8;curved=1;exitX=0.5;exitY=0;exitDx=0;exitDy=0;entryX=0.5;entryY=1;entryDx=0;entryDy=0;" parent="OjwI3aqR1hCVZbcka7N2-54" source="JVG38k8_dwU8XXT75InA-110" target="JVG38k8_dwU8XXT75InA-107" edge="1">
          <mxGeometry width="50" height="50" relative="1" as="geometry">
            <mxPoint x="1360" y="1400" as="sourcePoint" />
            <mxPoint x="1498" y="1165" as="targetPoint" />
          </mxGeometry>
        </mxCell>
        <mxCell id="JVG38k8_dwU8XXT75InA-114" value="implemets" style="edgeLabel;html=1;align=center;verticalAlign=middle;resizable=0;points=[];fontSize=12;" parent="JVG38k8_dwU8XXT75InA-113" vertex="1" connectable="0">
          <mxGeometry x="0.0016" relative="1" as="geometry">
            <mxPoint as="offset" />
          </mxGeometry>
        </mxCell>
        <mxCell id="JVG38k8_dwU8XXT75InA-115" value="CompositeCondition" style="rounded=0;whiteSpace=wrap;html=1;fontSize=19;" parent="OjwI3aqR1hCVZbcka7N2-54" vertex="1">
          <mxGeometry x="1333.5" y="1345" width="178.5" height="70" as="geometry" />
        </mxCell>
        <mxCell id="JVG38k8_dwU8XXT75InA-116" value="" style="endArrow=none;html=1;rounded=0;fontSize=12;startSize=8;endSize=8;curved=1;exitX=0.5;exitY=0;exitDx=0;exitDy=0;entryX=0.5;entryY=1;entryDx=0;entryDy=0;" parent="OjwI3aqR1hCVZbcka7N2-54" source="JVG38k8_dwU8XXT75InA-115" target="JVG38k8_dwU8XXT75InA-107" edge="1">
          <mxGeometry width="50" height="50" relative="1" as="geometry">
            <mxPoint x="1427" y="1470" as="sourcePoint" />
            <mxPoint x="1320" y="1235" as="targetPoint" />
          </mxGeometry>
        </mxCell>
        <mxCell id="JVG38k8_dwU8XXT75InA-117" value="implemets" style="edgeLabel;html=1;align=center;verticalAlign=middle;resizable=0;points=[];fontSize=12;" parent="JVG38k8_dwU8XXT75InA-116" vertex="1" connectable="0">
          <mxGeometry x="0.0016" relative="1" as="geometry">
            <mxPoint as="offset" />
          </mxGeometry>
        </mxCell>
        <mxCell id="JVG38k8_dwU8XXT75InA-118" value="ConditionFactory" style="rounded=0;whiteSpace=wrap;html=1;fontSize=19;" parent="OjwI3aqR1hCVZbcka7N2-54" vertex="1">
          <mxGeometry x="1340" y="1045" width="160" height="60" as="geometry" />
        </mxCell>
        <mxCell id="JVG38k8_dwU8XXT75InA-119" value="" style="endArrow=none;html=1;rounded=0;exitX=1;exitY=0.5;exitDx=0;exitDy=0;entryX=0;entryY=0.5;entryDx=0;entryDy=0;" parent="OjwI3aqR1hCVZbcka7N2-54" source="JVG38k8_dwU8XXT75InA-107" target="JVG38k8_dwU8XXT75InA-118" edge="1">
          <mxGeometry width="50" height="50" relative="1" as="geometry">
            <mxPoint x="1420" y="1145" as="sourcePoint" />
            <mxPoint x="1667" y="1145" as="targetPoint" />
          </mxGeometry>
        </mxCell>
        <mxCell id="JVG38k8_dwU8XXT75InA-120" value="ProductQuantityCondition" style="rounded=0;whiteSpace=wrap;html=1;fontSize=19;" parent="OjwI3aqR1hCVZbcka7N2-54" vertex="1">
          <mxGeometry x="1532" y="1345" width="240" height="70" as="geometry" />
        </mxCell>
        <mxCell id="JVG38k8_dwU8XXT75InA-121" value="" style="endArrow=none;html=1;rounded=0;fontSize=12;startSize=8;endSize=8;curved=1;exitX=0.5;exitY=0;exitDx=0;exitDy=0;entryX=0.5;entryY=1;entryDx=0;entryDy=0;" parent="OjwI3aqR1hCVZbcka7N2-54" source="JVG38k8_dwU8XXT75InA-120" target="JVG38k8_dwU8XXT75InA-107" edge="1">
          <mxGeometry width="50" height="50" relative="1" as="geometry">
            <mxPoint x="2053" y="1390" as="sourcePoint" />
            <mxPoint x="1720" y="1155" as="targetPoint" />
          </mxGeometry>
        </mxCell>
        <mxCell id="JVG38k8_dwU8XXT75InA-122" value="implemets" style="edgeLabel;html=1;align=center;verticalAlign=middle;resizable=0;points=[];fontSize=12;" parent="JVG38k8_dwU8XXT75InA-121" vertex="1" connectable="0">
          <mxGeometry x="0.0016" relative="1" as="geometry">
            <mxPoint as="offset" />
          </mxGeometry>
        </mxCell>
        <mxCell id="JVG38k8_dwU8XXT75InA-123" value="" style="endArrow=none;html=1;rounded=0;exitX=0.5;exitY=1;exitDx=0;exitDy=0;entryX=0.5;entryY=0;entryDx=0;entryDy=0;" parent="OjwI3aqR1hCVZbcka7N2-54" source="JVG38k8_dwU8XXT75InA-66" target="JVG38k8_dwU8XXT75InA-107" edge="1">
          <mxGeometry width="50" height="50" relative="1" as="geometry">
            <mxPoint x="1062" y="985" as="sourcePoint" />
            <mxPoint x="980" y="1085" as="targetPoint" />
          </mxGeometry>
        </mxCell>
        <mxCell id="JVG38k8_dwU8XXT75InA-100" value="" style="endArrow=none;html=1;rounded=0;fontSize=12;startSize=8;endSize=8;curved=1;exitX=0.5;exitY=0;exitDx=0;exitDy=0;entryX=0.5;entryY=1;entryDx=0;entryDy=0;" parent="OjwI3aqR1hCVZbcka7N2-54" source="JVG38k8_dwU8XXT75InA-61" target="JVG38k8_dwU8XXT75InA-57" edge="1">
          <mxGeometry width="50" height="50" relative="1" as="geometry">
            <mxPoint x="3352" y="790" as="sourcePoint" />
            <mxPoint x="3362" y="285" as="targetPoint" />
          </mxGeometry>
        </mxCell>
        <mxCell id="JVG38k8_dwU8XXT75InA-101" value="Enum" style="edgeLabel;html=1;align=center;verticalAlign=middle;resizable=0;points=[];fontSize=12;" parent="JVG38k8_dwU8XXT75InA-100" vertex="1" connectable="0">
          <mxGeometry x="0.0468" relative="1" as="geometry">
            <mxPoint y="1" as="offset" />
          </mxGeometry>
        </mxCell>
        <mxCell id="zd44GBkmWmEWS7j5n-WW-9" value="Permission" style="rounded=0;whiteSpace=wrap;html=1;fontSize=19;" vertex="1" parent="OjwI3aqR1hCVZbcka7N2-54">
          <mxGeometry x="1255.25" y="174" width="140" height="61.5" as="geometry" />
        </mxCell>
        <mxCell id="zd44GBkmWmEWS7j5n-WW-10" value="VIEW_ONLY" style="rounded=0;whiteSpace=wrap;html=1;fontSize=19;" vertex="1" parent="OjwI3aqR1hCVZbcka7N2-54">
          <mxGeometry x="1074.25" y="422" width="140" height="34" as="geometry" />
        </mxCell>
        <mxCell id="zd44GBkmWmEWS7j5n-WW-11" value="EDIT_PRODUCTS" style="rounded=0;whiteSpace=wrap;html=1;fontSize=19;" vertex="1" parent="OjwI3aqR1hCVZbcka7N2-54">
          <mxGeometry x="1124" y="470" width="169" height="34" as="geometry" />
        </mxCell>
        <mxCell id="zd44GBkmWmEWS7j5n-WW-12" value="EDIT_POLICIES" style="rounded=0;whiteSpace=wrap;html=1;fontSize=19;" vertex="1" parent="OjwI3aqR1hCVZbcka7N2-54">
          <mxGeometry x="1246.25" y="422" width="149" height="34" as="geometry" />
        </mxCell>
        <mxCell id="zd44GBkmWmEWS7j5n-WW-13" value="" style="endArrow=none;html=1;rounded=0;fontSize=12;startSize=8;endSize=8;curved=1;exitX=0.5;exitY=1;exitDx=0;exitDy=0;entryX=0.5;entryY=0;entryDx=0;entryDy=0;" edge="1" parent="OjwI3aqR1hCVZbcka7N2-54" source="zd44GBkmWmEWS7j5n-WW-9" target="zd44GBkmWmEWS7j5n-WW-10">
          <mxGeometry width="50" height="50" relative="1" as="geometry">
            <mxPoint x="1038" y="775.5" as="sourcePoint" />
            <mxPoint x="1142" y="680.5" as="targetPoint" />
          </mxGeometry>
        </mxCell>
        <mxCell id="zd44GBkmWmEWS7j5n-WW-14" value="Enum" style="edgeLabel;html=1;align=center;verticalAlign=middle;resizable=0;points=[];fontSize=12;" vertex="1" connectable="0" parent="zd44GBkmWmEWS7j5n-WW-13">
          <mxGeometry x="0.0468" relative="1" as="geometry">
            <mxPoint y="1" as="offset" />
          </mxGeometry>
        </mxCell>
        <mxCell id="zd44GBkmWmEWS7j5n-WW-15" value="" style="endArrow=none;html=1;rounded=0;fontSize=12;startSize=8;endSize=8;curved=1;entryX=0.5;entryY=1;entryDx=0;entryDy=0;exitX=0.5;exitY=0;exitDx=0;exitDy=0;" edge="1" parent="OjwI3aqR1hCVZbcka7N2-54" source="zd44GBkmWmEWS7j5n-WW-11" target="zd44GBkmWmEWS7j5n-WW-9">
          <mxGeometry width="50" height="50" relative="1" as="geometry">
            <mxPoint x="1188" y="765.5" as="sourcePoint" />
            <mxPoint x="1292" y="670.5" as="targetPoint" />
          </mxGeometry>
        </mxCell>
        <mxCell id="zd44GBkmWmEWS7j5n-WW-16" value="Enum" style="edgeLabel;html=1;align=center;verticalAlign=middle;resizable=0;points=[];fontSize=12;" vertex="1" connectable="0" parent="zd44GBkmWmEWS7j5n-WW-15">
          <mxGeometry x="0.0468" relative="1" as="geometry">
            <mxPoint y="1" as="offset" />
          </mxGeometry>
        </mxCell>
        <mxCell id="zd44GBkmWmEWS7j5n-WW-17" value="" style="endArrow=none;html=1;rounded=0;fontSize=12;startSize=8;endSize=8;curved=1;exitX=0.5;exitY=0;exitDx=0;exitDy=0;entryX=0.5;entryY=1;entryDx=0;entryDy=0;" edge="1" parent="OjwI3aqR1hCVZbcka7N2-54" source="zd44GBkmWmEWS7j5n-WW-12" target="zd44GBkmWmEWS7j5n-WW-9">
          <mxGeometry width="50" height="50" relative="1" as="geometry">
            <mxPoint x="1418" y="775.5" as="sourcePoint" />
            <mxPoint x="1428" y="270.5" as="targetPoint" />
          </mxGeometry>
        </mxCell>
        <mxCell id="zd44GBkmWmEWS7j5n-WW-18" value="Enum" style="edgeLabel;html=1;align=center;verticalAlign=middle;resizable=0;points=[];fontSize=12;" vertex="1" connectable="0" parent="zd44GBkmWmEWS7j5n-WW-17">
          <mxGeometry x="0.0468" relative="1" as="geometry">
            <mxPoint y="1" as="offset" />
          </mxGeometry>
        </mxCell>
        <mxCell id="zd44GBkmWmEWS7j5n-WW-19" value="BID_APPROVAL" style="rounded=0;whiteSpace=wrap;html=1;fontSize=19;" vertex="1" parent="OjwI3aqR1hCVZbcka7N2-54">
          <mxGeometry x="1359" y="470" width="156" height="34" as="geometry" />
        </mxCell>
        <mxCell id="zd44GBkmWmEWS7j5n-WW-20" value="" style="endArrow=none;html=1;rounded=0;fontSize=12;startSize=8;endSize=8;curved=1;exitX=0.5;exitY=0;exitDx=0;exitDy=0;entryX=0.5;entryY=1;entryDx=0;entryDy=0;" edge="1" parent="OjwI3aqR1hCVZbcka7N2-54" source="zd44GBkmWmEWS7j5n-WW-19" target="zd44GBkmWmEWS7j5n-WW-9">
          <mxGeometry width="50" height="50" relative="1" as="geometry">
            <mxPoint x="1388" y="535" as="sourcePoint" />
            <mxPoint x="1218" y="279" as="targetPoint" />
          </mxGeometry>
        </mxCell>
        <mxCell id="zd44GBkmWmEWS7j5n-WW-21" value="Enum" style="edgeLabel;html=1;align=center;verticalAlign=middle;resizable=0;points=[];fontSize=12;" vertex="1" connectable="0" parent="zd44GBkmWmEWS7j5n-WW-20">
          <mxGeometry x="0.0468" relative="1" as="geometry">
            <mxPoint y="1" as="offset" />
          </mxGeometry>
        </mxCell>
        <mxCell id="zd44GBkmWmEWS7j5n-WW-22" value="Manager" style="rounded=0;whiteSpace=wrap;html=1;fontSize=19;" vertex="1" parent="OjwI3aqR1hCVZbcka7N2-54">
          <mxGeometry x="1260.75" y="80.5" width="129" height="50" as="geometry" />
        </mxCell>
        <mxCell id="zd44GBkmWmEWS7j5n-WW-27" value="" style="endArrow=none;html=1;rounded=0;entryX=0;entryY=0.5;entryDx=0;entryDy=0;exitX=1;exitY=0.5;exitDx=0;exitDy=0;" edge="1" parent="OjwI3aqR1hCVZbcka7N2-54" source="zd44GBkmWmEWS7j5n-WW-22" target="OjwI3aqR1hCVZbcka7N2-4">
          <mxGeometry width="50" height="50" relative="1" as="geometry">
            <mxPoint x="1705" y="530" as="sourcePoint" />
            <mxPoint x="1755" y="480" as="targetPoint" />
          </mxGeometry>
        </mxCell>
        <mxCell id="zd44GBkmWmEWS7j5n-WW-28" value="" style="endArrow=none;html=1;rounded=0;entryX=0.5;entryY=1;entryDx=0;entryDy=0;exitX=0.5;exitY=0;exitDx=0;exitDy=0;" edge="1" parent="OjwI3aqR1hCVZbcka7N2-54" source="zd44GBkmWmEWS7j5n-WW-9" target="zd44GBkmWmEWS7j5n-WW-22">
          <mxGeometry width="50" height="50" relative="1" as="geometry">
            <mxPoint x="1705" y="530" as="sourcePoint" />
            <mxPoint x="1755" y="480" as="targetPoint" />
          </mxGeometry>
        </mxCell>
        <mxCell id="zd44GBkmWmEWS7j5n-WW-29" value="**Suspension" style="rounded=0;whiteSpace=wrap;html=1;fontSize=19;" vertex="1" parent="OjwI3aqR1hCVZbcka7N2-54">
          <mxGeometry x="4315" y="264" width="140" height="50" as="geometry" />
        </mxCell>
        <mxCell id="zd44GBkmWmEWS7j5n-WW-30" value="" style="endArrow=none;html=1;rounded=0;exitX=0.5;exitY=1;exitDx=0;exitDy=0;entryX=0.5;entryY=0;entryDx=0;entryDy=0;" edge="1" parent="OjwI3aqR1hCVZbcka7N2-54" source="JVG38k8_dwU8XXT75InA-31" target="zd44GBkmWmEWS7j5n-WW-29">
          <mxGeometry width="50" height="50" relative="1" as="geometry">
            <mxPoint x="4657" y="190" as="sourcePoint" />
            <mxPoint x="4345" y="403" as="targetPoint" />
          </mxGeometry>
        </mxCell>
        <mxCell id="zd44GBkmWmEWS7j5n-WW-32" value="BidRepository" style="rounded=0;whiteSpace=wrap;html=1;fontSize=19;" vertex="1" parent="OjwI3aqR1hCVZbcka7N2-54">
          <mxGeometry x="725" y="80.5" width="180" height="50" as="geometry" />
        </mxCell>
        <mxCell id="zd44GBkmWmEWS7j5n-WW-194" value="AuctionRepository" style="rounded=0;whiteSpace=wrap;html=1;fontSize=19;" vertex="1" parent="OjwI3aqR1hCVZbcka7N2-54">
          <mxGeometry x="941.5" y="80.5" width="180" height="50" as="geometry" />
        </mxCell>
        <mxCell id="zd44GBkmWmEWS7j5n-WW-198" value="**BidEntity" style="rounded=0;whiteSpace=wrap;html=1;fontSize=19;" vertex="1" parent="OjwI3aqR1hCVZbcka7N2-54">
          <mxGeometry x="740" y="210" width="110" height="50" as="geometry" />
        </mxCell>
        <mxCell id="zd44GBkmWmEWS7j5n-WW-199" value="" style="endArrow=none;html=1;rounded=0;entryX=0.5;entryY=1;entryDx=0;entryDy=0;exitX=0.5;exitY=0;exitDx=0;exitDy=0;" edge="1" parent="OjwI3aqR1hCVZbcka7N2-54" source="zd44GBkmWmEWS7j5n-WW-198" target="zd44GBkmWmEWS7j5n-WW-32">
          <mxGeometry width="50" height="50" relative="1" as="geometry">
            <mxPoint x="845" y="310" as="sourcePoint" />
            <mxPoint x="895" y="260" as="targetPoint" />
          </mxGeometry>
        </mxCell>
        <mxCell id="zd44GBkmWmEWS7j5n-WW-200" value="**AuctionEntity" style="rounded=0;whiteSpace=wrap;html=1;fontSize=19;" vertex="1" parent="OjwI3aqR1hCVZbcka7N2-54">
          <mxGeometry x="951.5" y="210" width="160" height="50" as="geometry" />
        </mxCell>
        <mxCell id="zd44GBkmWmEWS7j5n-WW-201" value="" style="endArrow=none;html=1;rounded=0;entryX=0.5;entryY=1;entryDx=0;entryDy=0;exitX=0.5;exitY=0;exitDx=0;exitDy=0;" edge="1" parent="OjwI3aqR1hCVZbcka7N2-54" source="zd44GBkmWmEWS7j5n-WW-200" target="zd44GBkmWmEWS7j5n-WW-194">
          <mxGeometry width="50" height="50" relative="1" as="geometry">
            <mxPoint x="925" y="259" as="sourcePoint" />
            <mxPoint x="945" y="180" as="targetPoint" />
          </mxGeometry>
        </mxCell>
        <mxCell id="zd44GBkmWmEWS7j5n-WW-205" value="DiscountPolicyEntity" style="rounded=0;whiteSpace=wrap;html=1;fontSize=19;" vertex="1" parent="OjwI3aqR1hCVZbcka7N2-54">
          <mxGeometry x="1805" y="621" width="180" height="60" as="geometry" />
        </mxCell>
        <mxCell id="zd44GBkmWmEWS7j5n-WW-206" value="" style="endArrow=none;html=1;rounded=0;fontSize=12;startSize=8;endSize=8;curved=1;exitX=0;exitY=0.5;exitDx=0;exitDy=0;entryX=1;entryY=0.5;entryDx=0;entryDy=0;" edge="1" parent="OjwI3aqR1hCVZbcka7N2-54" source="zd44GBkmWmEWS7j5n-WW-205" target="OjwI3aqR1hCVZbcka7N2-14">
          <mxGeometry width="50" height="50" relative="1" as="geometry">
            <mxPoint x="2102" y="1000" as="sourcePoint" />
            <mxPoint x="1805" y="810" as="targetPoint" />
          </mxGeometry>
        </mxCell>
        <mxCell id="zd44GBkmWmEWS7j5n-WW-207" value="implemets" style="edgeLabel;html=1;align=center;verticalAlign=middle;resizable=0;points=[];fontSize=12;" vertex="1" connectable="0" parent="zd44GBkmWmEWS7j5n-WW-206">
          <mxGeometry x="0.0016" relative="1" as="geometry">
            <mxPoint as="offset" />
          </mxGeometry>
        </mxCell>
        <mxCell id="zd44GBkmWmEWS7j5n-WW-208" value="**PurchasePolicyEntity" style="rounded=0;whiteSpace=wrap;html=1;fontSize=19;" vertex="1" parent="OjwI3aqR1hCVZbcka7N2-54">
          <mxGeometry x="2235" y="780" width="201" height="70" as="geometry" />
        </mxCell>
        <mxCell id="zd44GBkmWmEWS7j5n-WW-209" value="" style="endArrow=none;html=1;rounded=0;fontSize=12;startSize=8;endSize=8;curved=1;entryX=0;entryY=0.5;entryDx=0;entryDy=0;exitX=1;exitY=0.5;exitDx=0;exitDy=0;" edge="1" parent="OjwI3aqR1hCVZbcka7N2-54" source="zd44GBkmWmEWS7j5n-WW-208" target="OjwI3aqR1hCVZbcka7N2-18">
          <mxGeometry width="50" height="50" relative="1" as="geometry">
            <mxPoint x="2625" y="1090" as="sourcePoint" />
            <mxPoint x="3099" y="890" as="targetPoint" />
          </mxGeometry>
        </mxCell>
        <mxCell id="zd44GBkmWmEWS7j5n-WW-210" value="implements" style="edgeLabel;html=1;align=center;verticalAlign=middle;resizable=0;points=[];fontSize=12;" vertex="1" connectable="0" parent="zd44GBkmWmEWS7j5n-WW-209">
          <mxGeometry x="-0.0143" y="-1" relative="1" as="geometry">
            <mxPoint as="offset" />
          </mxGeometry>
        </mxCell>
        <mxCell id="zd44GBkmWmEWS7j5n-WW-211" value="**StoreRoles" style="rounded=0;whiteSpace=wrap;html=1;fontSize=19;" vertex="1" parent="OjwI3aqR1hCVZbcka7N2-54">
          <mxGeometry x="1925" y="334" width="180" height="50" as="geometry" />
        </mxCell>
        <mxCell id="zd44GBkmWmEWS7j5n-WW-212" value="" style="endArrow=none;html=1;rounded=0;entryX=0.5;entryY=1;entryDx=0;entryDy=0;exitX=0.5;exitY=0;exitDx=0;exitDy=0;" edge="1" parent="OjwI3aqR1hCVZbcka7N2-54" source="zd44GBkmWmEWS7j5n-WW-211" target="OjwI3aqR1hCVZbcka7N2-4">
          <mxGeometry width="50" height="50" relative="1" as="geometry">
            <mxPoint x="1515" y="380" as="sourcePoint" />
            <mxPoint x="1565" y="330" as="targetPoint" />
          </mxGeometry>
        </mxCell>
        <mxCell id="zd44GBkmWmEWS7j5n-WW-213" value="**StoreAssigners" style="rounded=0;whiteSpace=wrap;html=1;fontSize=19;" vertex="1" parent="OjwI3aqR1hCVZbcka7N2-54">
          <mxGeometry x="2135" y="334" width="180" height="50" as="geometry" />
        </mxCell>
        <mxCell id="zd44GBkmWmEWS7j5n-WW-214" value="" style="endArrow=none;html=1;rounded=0;entryX=0.5;entryY=1;entryDx=0;entryDy=0;exitX=0.5;exitY=0;exitDx=0;exitDy=0;" edge="1" parent="OjwI3aqR1hCVZbcka7N2-54" source="zd44GBkmWmEWS7j5n-WW-213" target="OjwI3aqR1hCVZbcka7N2-4">
          <mxGeometry width="50" height="50" relative="1" as="geometry">
            <mxPoint x="1515" y="380" as="sourcePoint" />
            <mxPoint x="1565" y="330" as="targetPoint" />
          </mxGeometry>
        </mxCell>
        <mxCell id="OjwI3aqR1hCVZbcka7N2-272" value="" style="swimlane;startSize=0;strokeWidth=3;" parent="1" vertex="1">
          <mxGeometry x="-4225" y="1010" width="4970" height="400" as="geometry" />
        </mxCell>
        <mxCell id="OjwI3aqR1hCVZbcka7N2-259" value="UserService" style="rounded=0;whiteSpace=wrap;html=1;fontSize=19;" parent="OjwI3aqR1hCVZbcka7N2-272" vertex="1">
          <mxGeometry x="2520" y="154.22" width="350" height="107.5" as="geometry" />
        </mxCell>
        <mxCell id="OjwI3aqR1hCVZbcka7N2-258" value="StoreService" style="rounded=0;whiteSpace=wrap;html=1;fontSize=19;" parent="OjwI3aqR1hCVZbcka7N2-272" vertex="1">
          <mxGeometry x="610" y="165.16" width="322" height="100" as="geometry" />
        </mxCell>
        <mxCell id="OjwI3aqR1hCVZbcka7N2-273" value="Application Layer" style="text;html=1;align=center;verticalAlign=middle;whiteSpace=wrap;rounded=0;fontSize=20;fontStyle=7" parent="OjwI3aqR1hCVZbcka7N2-272" vertex="1">
          <mxGeometry x="20" y="20" width="180" height="30" as="geometry" />
        </mxCell>
        <mxCell id="bWdd-FNuYPZd20RBbe-Y-7" value="ShipmentService" style="rounded=0;whiteSpace=wrap;html=1;fontSize=19;" parent="OjwI3aqR1hCVZbcka7N2-272" vertex="1">
          <mxGeometry x="4010" y="142.5" width="410" height="115" as="geometry" />
        </mxCell>
        <mxCell id="bWdd-FNuYPZd20RBbe-Y-8" value="PaymentService" style="rounded=0;whiteSpace=wrap;html=1;fontSize=19;" parent="OjwI3aqR1hCVZbcka7N2-272" vertex="1">
          <mxGeometry x="4520" y="142.5" width="360" height="115" as="geometry" />
        </mxCell>
        <mxCell id="bWdd-FNuYPZd20RBbe-Y-9" value="AuthService" style="rounded=0;whiteSpace=wrap;html=1;fontSize=19;" parent="OjwI3aqR1hCVZbcka7N2-272" vertex="1">
          <mxGeometry x="3040" y="143.6" width="344" height="118.12" as="geometry" />
        </mxCell>
        <mxCell id="bWdd-FNuYPZd20RBbe-Y-10" value="PurchaseService" style="rounded=0;whiteSpace=wrap;html=1;fontSize=19;" parent="OjwI3aqR1hCVZbcka7N2-272" vertex="1">
          <mxGeometry x="1500" y="162.66" width="390" height="101.56" as="geometry" />
        </mxCell>
        <mxCell id="HVDQ8SukldScqDi56Urr-3" value="ProductService" style="rounded=0;whiteSpace=wrap;html=1;fontSize=19;" parent="OjwI3aqR1hCVZbcka7N2-272" vertex="1">
          <mxGeometry x="1030" y="162.66" width="350" height="107.5" as="geometry" />
        </mxCell>
        <mxCell id="HVDQ8SukldScqDi56Urr-4" value="AdminService&amp;nbsp;" style="rounded=0;whiteSpace=wrap;html=1;fontSize=19;" parent="OjwI3aqR1hCVZbcka7N2-272" vertex="1">
          <mxGeometry x="2050" y="165.16" width="350" height="96.56" as="geometry" />
        </mxCell>
        <mxCell id="HVDQ8SukldScqDi56Urr-16" value="StorePoliciesService" style="rounded=0;whiteSpace=wrap;html=1;fontSize=19;" parent="OjwI3aqR1hCVZbcka7N2-272" vertex="1">
          <mxGeometry x="130" y="170" width="350" height="107.5" as="geometry" />
        </mxCell>
        <mxCell id="JVG38k8_dwU8XXT75InA-35" value="NotificationService" style="rounded=0;whiteSpace=wrap;html=1;fontSize=19;" parent="OjwI3aqR1hCVZbcka7N2-272" vertex="1">
          <mxGeometry x="3500" y="146.72" width="410" height="115" as="geometry" />
        </mxCell>
        <mxCell id="HVDQ8SukldScqDi56Urr-1" style="edgeStyle=none;curved=1;rounded=0;orthogonalLoop=1;jettySize=auto;html=1;exitX=0.5;exitY=1;exitDx=0;exitDy=0;entryX=0.5;entryY=0;entryDx=0;entryDy=0;fontSize=12;startSize=8;endSize=8;" parent="1" source="bWdd-FNuYPZd20RBbe-Y-9" target="OjwI3aqR1hCVZbcka7N2-294" edge="1">
          <mxGeometry relative="1" as="geometry" />
        </mxCell>
        <mxCell id="HVDQ8SukldScqDi56Urr-2" style="edgeStyle=none;curved=1;rounded=0;orthogonalLoop=1;jettySize=auto;html=1;exitX=0.5;exitY=1;exitDx=0;exitDy=0;entryX=0.25;entryY=0;entryDx=0;entryDy=0;fontSize=12;startSize=8;endSize=8;" parent="1" source="OjwI3aqR1hCVZbcka7N2-259" target="OjwI3aqR1hCVZbcka7N2-294" edge="1">
          <mxGeometry relative="1" as="geometry" />
        </mxCell>
        <mxCell id="HVDQ8SukldScqDi56Urr-5" style="edgeStyle=none;curved=1;rounded=0;orthogonalLoop=1;jettySize=auto;html=1;exitX=0.5;exitY=1;exitDx=0;exitDy=0;entryX=0;entryY=0;entryDx=0;entryDy=0;fontSize=12;startSize=8;endSize=8;" parent="1" source="HVDQ8SukldScqDi56Urr-4" target="OjwI3aqR1hCVZbcka7N2-294" edge="1">
          <mxGeometry relative="1" as="geometry" />
        </mxCell>
        <mxCell id="HVDQ8SukldScqDi56Urr-6" style="edgeStyle=none;curved=1;rounded=0;orthogonalLoop=1;jettySize=auto;html=1;exitX=0.5;exitY=1;exitDx=0;exitDy=0;entryX=0.75;entryY=0;entryDx=0;entryDy=0;fontSize=12;startSize=8;endSize=8;" parent="1" source="HVDQ8SukldScqDi56Urr-4" target="OjwI3aqR1hCVZbcka7N2-296" edge="1">
          <mxGeometry relative="1" as="geometry" />
        </mxCell>
        <mxCell id="HVDQ8SukldScqDi56Urr-7" style="edgeStyle=none;curved=1;rounded=0;orthogonalLoop=1;jettySize=auto;html=1;exitX=0.5;exitY=1;exitDx=0;exitDy=0;entryX=0;entryY=0.5;entryDx=0;entryDy=0;fontSize=12;startSize=8;endSize=8;" parent="1" source="bWdd-FNuYPZd20RBbe-Y-10" target="OjwI3aqR1hCVZbcka7N2-294" edge="1">
          <mxGeometry relative="1" as="geometry" />
        </mxCell>
        <mxCell id="HVDQ8SukldScqDi56Urr-8" style="edgeStyle=none;curved=1;rounded=0;orthogonalLoop=1;jettySize=auto;html=1;exitX=0.5;exitY=1;exitDx=0;exitDy=0;entryX=0.5;entryY=0;entryDx=0;entryDy=0;fontSize=12;startSize=8;endSize=8;" parent="1" source="bWdd-FNuYPZd20RBbe-Y-10" target="bWdd-FNuYPZd20RBbe-Y-193" edge="1">
          <mxGeometry relative="1" as="geometry" />
        </mxCell>
        <mxCell id="HVDQ8SukldScqDi56Urr-9" style="edgeStyle=none;curved=1;rounded=0;orthogonalLoop=1;jettySize=auto;html=1;exitX=0.5;exitY=1;exitDx=0;exitDy=0;entryX=0.5;entryY=0;entryDx=0;entryDy=0;fontSize=12;startSize=8;endSize=8;" parent="1" source="bWdd-FNuYPZd20RBbe-Y-10" target="OjwI3aqR1hCVZbcka7N2-296" edge="1">
          <mxGeometry relative="1" as="geometry" />
        </mxCell>
        <mxCell id="HVDQ8SukldScqDi56Urr-15" style="edgeStyle=none;curved=1;rounded=0;orthogonalLoop=1;jettySize=auto;html=1;exitX=0.5;exitY=1;exitDx=0;exitDy=0;entryX=0.5;entryY=0;entryDx=0;entryDy=0;fontSize=12;startSize=8;endSize=8;" parent="1" source="bWdd-FNuYPZd20RBbe-Y-10" target="HVDQ8SukldScqDi56Urr-10" edge="1">
          <mxGeometry relative="1" as="geometry" />
        </mxCell>
        <mxCell id="HVDQ8SukldScqDi56Urr-17" style="edgeStyle=none;curved=1;rounded=0;orthogonalLoop=1;jettySize=auto;html=1;exitX=0.5;exitY=1;exitDx=0;exitDy=0;entryX=0.5;entryY=0;entryDx=0;entryDy=0;fontSize=12;startSize=8;endSize=8;" parent="1" source="HVDQ8SukldScqDi56Urr-16" target="OjwI3aqR1hCVZbcka7N2-296" edge="1">
          <mxGeometry relative="1" as="geometry" />
        </mxCell>
        <mxCell id="HVDQ8SukldScqDi56Urr-18" style="edgeStyle=none;curved=1;rounded=0;orthogonalLoop=1;jettySize=auto;html=1;exitX=0.5;exitY=1;exitDx=0;exitDy=0;entryX=0.25;entryY=0;entryDx=0;entryDy=0;fontSize=12;startSize=8;endSize=8;" parent="1" source="HVDQ8SukldScqDi56Urr-3" target="HVDQ8SukldScqDi56Urr-10" edge="1">
          <mxGeometry relative="1" as="geometry" />
        </mxCell>
        <mxCell id="HVDQ8SukldScqDi56Urr-19" style="edgeStyle=none;curved=1;rounded=0;orthogonalLoop=1;jettySize=auto;html=1;exitX=0.5;exitY=1;exitDx=0;exitDy=0;entryX=0.25;entryY=0;entryDx=0;entryDy=0;fontSize=12;startSize=8;endSize=8;" parent="1" source="OjwI3aqR1hCVZbcka7N2-258" target="OjwI3aqR1hCVZbcka7N2-296" edge="1">
          <mxGeometry relative="1" as="geometry" />
        </mxCell>
        <mxCell id="HVDQ8SukldScqDi56Urr-20" style="edgeStyle=none;curved=1;rounded=0;orthogonalLoop=1;jettySize=auto;html=1;exitX=0.5;exitY=1;exitDx=0;exitDy=0;entryX=0;entryY=0.5;entryDx=0;entryDy=0;fontSize=12;startSize=8;endSize=8;" parent="1" source="OjwI3aqR1hCVZbcka7N2-258" target="HVDQ8SukldScqDi56Urr-10" edge="1">
          <mxGeometry relative="1" as="geometry" />
        </mxCell>
        <mxCell id="JVG38k8_dwU8XXT75InA-13" value="" style="swimlane;startSize=0;strokeWidth=3;" parent="1" vertex="1">
          <mxGeometry x="-4231" y="150" width="4966" height="310" as="geometry" />
        </mxCell>
        <mxCell id="JVG38k8_dwU8XXT75InA-16" value="Frontend Layer" style="text;html=1;align=center;verticalAlign=middle;whiteSpace=wrap;rounded=0;fontSize=20;fontStyle=7" parent="JVG38k8_dwU8XXT75InA-13" vertex="1">
          <mxGeometry x="20" y="20" width="180" height="30" as="geometry" />
        </mxCell>
        <mxCell id="JVG38k8_dwU8XXT75InA-7" value="userService" style="rounded=0;whiteSpace=wrap;html=1;fontSize=19;" parent="JVG38k8_dwU8XXT75InA-13" vertex="1">
          <mxGeometry x="1862" y="110" width="350" height="101.56" as="geometry" />
        </mxCell>
        <mxCell id="JVG38k8_dwU8XXT75InA-8" value="productService" style="rounded=0;whiteSpace=wrap;html=1;fontSize=19;" parent="JVG38k8_dwU8XXT75InA-13" vertex="1">
          <mxGeometry x="992" y="110" width="330" height="101.56" as="geometry" />
        </mxCell>
        <mxCell id="JVG38k8_dwU8XXT75InA-9" value="purchaseService" style="rounded=0;whiteSpace=wrap;html=1;fontSize=19;" parent="JVG38k8_dwU8XXT75InA-13" vertex="1">
          <mxGeometry x="1402" y="110" width="360" height="101.56" as="geometry" />
        </mxCell>
        <mxCell id="JVG38k8_dwU8XXT75InA-10" value="PolicyService" style="rounded=0;whiteSpace=wrap;html=1;fontSize=19;" parent="JVG38k8_dwU8XXT75InA-13" vertex="1">
          <mxGeometry x="142" y="110" width="330" height="101.56" as="geometry" />
        </mxCell>
        <mxCell id="JVG38k8_dwU8XXT75InA-11" value="authService" style="rounded=0;whiteSpace=wrap;html=1;fontSize=19;" parent="JVG38k8_dwU8XXT75InA-13" vertex="1">
          <mxGeometry x="2312" y="110" width="350" height="101.56" as="geometry" />
        </mxCell>
        <mxCell id="JVG38k8_dwU8XXT75InA-12" value="storeService" style="rounded=0;whiteSpace=wrap;html=1;fontSize=19;" parent="JVG38k8_dwU8XXT75InA-13" vertex="1">
          <mxGeometry x="572" y="110" width="350" height="101.56" as="geometry" />
        </mxCell>
        <mxCell id="JVG38k8_dwU8XXT75InA-24" value="" style="swimlane;startSize=0;strokeWidth=3;" parent="1" vertex="1">
          <mxGeometry x="-4225" y="580.78" width="4960" height="280" as="geometry" />
        </mxCell>
        <mxCell id="JVG38k8_dwU8XXT75InA-25" value="Rest API Layer" style="text;html=1;align=center;verticalAlign=middle;whiteSpace=wrap;rounded=0;fontSize=20;fontStyle=7" parent="JVG38k8_dwU8XXT75InA-24" vertex="1">
          <mxGeometry x="20" y="20" width="180" height="30" as="geometry" />
        </mxCell>
        <mxCell id="JVG38k8_dwU8XXT75InA-1" value="AuthController" style="rounded=0;whiteSpace=wrap;html=1;fontSize=19;" parent="JVG38k8_dwU8XXT75InA-24" vertex="1">
          <mxGeometry x="3010" y="89.22000000000003" width="390" height="101.56" as="geometry" />
        </mxCell>
        <mxCell id="JVG38k8_dwU8XXT75InA-6" value="UserController" style="rounded=0;whiteSpace=wrap;html=1;fontSize=19;" parent="JVG38k8_dwU8XXT75InA-24" vertex="1">
          <mxGeometry x="2520" y="99.22000000000003" width="350" height="101.56" as="geometry" />
        </mxCell>
        <mxCell id="JVG38k8_dwU8XXT75InA-42" value="AdminController" style="rounded=0;whiteSpace=wrap;html=1;fontSize=19;" parent="JVG38k8_dwU8XXT75InA-24" vertex="1">
          <mxGeometry x="2050" y="89.22000000000003" width="350" height="101.56" as="geometry" />
        </mxCell>
        <mxCell id="JVG38k8_dwU8XXT75InA-45" value="NotificationController" style="rounded=0;whiteSpace=wrap;html=1;fontSize=19;" parent="JVG38k8_dwU8XXT75InA-24" vertex="1">
          <mxGeometry x="3600" y="99.22000000000003" width="390" height="101.56" as="geometry" />
        </mxCell>
        <mxCell id="JVG38k8_dwU8XXT75InA-3" value="PurchaseController" style="rounded=0;whiteSpace=wrap;html=1;fontSize=19;" parent="JVG38k8_dwU8XXT75InA-24" vertex="1">
          <mxGeometry x="1515" y="89.22000000000003" width="360" height="101.56" as="geometry" />
        </mxCell>
        <mxCell id="JVG38k8_dwU8XXT75InA-2" value="ProductController" style="rounded=0;whiteSpace=wrap;html=1;fontSize=19;" parent="JVG38k8_dwU8XXT75InA-24" vertex="1">
          <mxGeometry x="1050" y="89.22000000000003" width="330" height="101.56" as="geometry" />
        </mxCell>
        <mxCell id="JVG38k8_dwU8XXT75InA-5" value="StorePoliciesController" style="rounded=0;whiteSpace=wrap;html=1;fontSize=19;" parent="JVG38k8_dwU8XXT75InA-24" vertex="1">
          <mxGeometry x="163" y="99.22000000000003" width="310" height="101.56" as="geometry" />
        </mxCell>
        <mxCell id="JVG38k8_dwU8XXT75InA-4" value="StroeController" style="rounded=0;whiteSpace=wrap;html=1;fontSize=19;" parent="JVG38k8_dwU8XXT75InA-24" vertex="1">
          <mxGeometry x="608" y="89.22000000000003" width="330" height="101.56" as="geometry" />
        </mxCell>
        <mxCell id="JVG38k8_dwU8XXT75InA-30" value="" style="endArrow=classic;html=1;rounded=0;exitX=0.5;exitY=1;exitDx=0;exitDy=0;entryX=0.5;entryY=0;entryDx=0;entryDy=0;" parent="1" source="HVDQ8SukldScqDi56Urr-4" target="JVG38k8_dwU8XXT75InA-27" edge="1">
          <mxGeometry width="50" height="50" relative="1" as="geometry">
            <mxPoint x="-615" y="1810" as="sourcePoint" />
            <mxPoint x="-565" y="1760" as="targetPoint" />
          </mxGeometry>
        </mxCell>
        <mxCell id="JVG38k8_dwU8XXT75InA-32" value="" style="endArrow=classic;html=1;rounded=0;entryX=0.5;entryY=0;entryDx=0;entryDy=0;exitX=0.5;exitY=1;exitDx=0;exitDy=0;" parent="1" source="OjwI3aqR1hCVZbcka7N2-259" target="JVG38k8_dwU8XXT75InA-31" edge="1">
          <mxGeometry width="50" height="50" relative="1" as="geometry">
            <mxPoint x="-1675" y="1260" as="sourcePoint" />
            <mxPoint x="-155" y="1880" as="targetPoint" />
          </mxGeometry>
        </mxCell>
        <mxCell id="JVG38k8_dwU8XXT75InA-36" value="" style="endArrow=classic;html=1;rounded=0;exitX=0.5;exitY=1;exitDx=0;exitDy=0;entryX=0.5;entryY=0;entryDx=0;entryDy=0;" parent="1" source="JVG38k8_dwU8XXT75InA-35" target="JVG38k8_dwU8XXT75InA-34" edge="1">
          <mxGeometry width="50" height="50" relative="1" as="geometry">
            <mxPoint x="465" y="1320" as="sourcePoint" />
            <mxPoint x="515" y="1270" as="targetPoint" />
          </mxGeometry>
        </mxCell>
        <mxCell id="JVG38k8_dwU8XXT75InA-37" value="" style="endArrow=classic;html=1;rounded=0;entryX=0.25;entryY=0;entryDx=0;entryDy=0;exitX=0.5;exitY=1;exitDx=0;exitDy=0;" parent="1" source="HVDQ8SukldScqDi56Urr-4" target="JVG38k8_dwU8XXT75InA-31" edge="1">
          <mxGeometry width="50" height="50" relative="1" as="geometry">
            <mxPoint x="-2145" y="1260" as="sourcePoint" />
            <mxPoint x="-975" y="1570" as="targetPoint" />
          </mxGeometry>
        </mxCell>
        <mxCell id="JVG38k8_dwU8XXT75InA-38" value="" style="endArrow=classic;html=1;rounded=0;exitX=0.5;exitY=1;exitDx=0;exitDy=0;entryX=0;entryY=0.25;entryDx=0;entryDy=0;" parent="1" source="HVDQ8SukldScqDi56Urr-16" target="JVG38k8_dwU8XXT75InA-31" edge="1">
          <mxGeometry width="50" height="50" relative="1" as="geometry">
            <mxPoint x="-1645" y="1430" as="sourcePoint" />
            <mxPoint x="-1595" y="1380" as="targetPoint" />
          </mxGeometry>
        </mxCell>
        <mxCell id="JVG38k8_dwU8XXT75InA-39" value="" style="endArrow=classic;html=1;rounded=0;exitX=0.5;exitY=1;exitDx=0;exitDy=0;entryX=0;entryY=1;entryDx=0;entryDy=0;" parent="1" source="OjwI3aqR1hCVZbcka7N2-258" target="OjwI3aqR1hCVZbcka7N2-294" edge="1">
          <mxGeometry width="50" height="50" relative="1" as="geometry">
            <mxPoint x="-1115" y="1610" as="sourcePoint" />
            <mxPoint x="-1065" y="1560" as="targetPoint" />
          </mxGeometry>
        </mxCell>
        <mxCell id="JVG38k8_dwU8XXT75InA-40" value="" style="endArrow=classic;html=1;rounded=0;exitX=0.5;exitY=1;exitDx=0;exitDy=0;entryX=0;entryY=0.5;entryDx=0;entryDy=0;" parent="1" source="OjwI3aqR1hCVZbcka7N2-258" target="JVG38k8_dwU8XXT75InA-31" edge="1">
          <mxGeometry width="50" height="50" relative="1" as="geometry">
            <mxPoint x="-1035" y="1630" as="sourcePoint" />
            <mxPoint x="-985" y="1580" as="targetPoint" />
          </mxGeometry>
        </mxCell>
        <mxCell id="JVG38k8_dwU8XXT75InA-41" value="" style="endArrow=classic;html=1;rounded=0;entryX=0.75;entryY=0;entryDx=0;entryDy=0;exitX=0.5;exitY=1;exitDx=0;exitDy=0;" parent="1" source="bWdd-FNuYPZd20RBbe-Y-9" target="JVG38k8_dwU8XXT75InA-31" edge="1">
          <mxGeometry width="50" height="50" relative="1" as="geometry">
            <mxPoint x="-1145" y="1260" as="sourcePoint" />
            <mxPoint x="-635" y="1510" as="targetPoint" />
          </mxGeometry>
        </mxCell>
        <mxCell id="JVG38k8_dwU8XXT75InA-43" value="" style="endArrow=classic;html=1;rounded=0;exitX=0.5;exitY=1;exitDx=0;exitDy=0;entryX=0.5;entryY=0;entryDx=0;entryDy=0;" parent="1" source="JVG38k8_dwU8XXT75InA-42" target="HVDQ8SukldScqDi56Urr-4" edge="1">
          <mxGeometry width="50" height="50" relative="1" as="geometry">
            <mxPoint x="-1675" y="780" as="sourcePoint" />
            <mxPoint x="-1625" y="730" as="targetPoint" />
          </mxGeometry>
        </mxCell>
        <mxCell id="JVG38k8_dwU8XXT75InA-44" value="" style="endArrow=classic;html=1;rounded=0;exitX=0.5;exitY=1;exitDx=0;exitDy=0;entryX=0.5;entryY=0;entryDx=0;entryDy=0;" parent="1" source="JVG38k8_dwU8XXT75InA-1" target="bWdd-FNuYPZd20RBbe-Y-9" edge="1">
          <mxGeometry width="50" height="50" relative="1" as="geometry">
            <mxPoint x="-1675" y="780" as="sourcePoint" />
            <mxPoint x="-1625" y="730" as="targetPoint" />
          </mxGeometry>
        </mxCell>
        <mxCell id="JVG38k8_dwU8XXT75InA-46" value="" style="endArrow=classic;html=1;rounded=0;exitX=0.5;exitY=1;exitDx=0;exitDy=0;entryX=0.5;entryY=0;entryDx=0;entryDy=0;" parent="1" source="JVG38k8_dwU8XXT75InA-45" target="JVG38k8_dwU8XXT75InA-35" edge="1">
          <mxGeometry width="50" height="50" relative="1" as="geometry">
            <mxPoint x="-825" y="780" as="sourcePoint" />
            <mxPoint x="-775" y="730" as="targetPoint" />
          </mxGeometry>
        </mxCell>
        <mxCell id="JVG38k8_dwU8XXT75InA-47" value="" style="endArrow=classic;html=1;rounded=0;exitX=0.5;exitY=1;exitDx=0;exitDy=0;entryX=0.5;entryY=0;entryDx=0;entryDy=0;" parent="1" source="JVG38k8_dwU8XXT75InA-2" target="HVDQ8SukldScqDi56Urr-3" edge="1">
          <mxGeometry width="50" height="50" relative="1" as="geometry">
            <mxPoint x="-2385" y="780" as="sourcePoint" />
            <mxPoint x="-2335" y="730" as="targetPoint" />
          </mxGeometry>
        </mxCell>
        <mxCell id="JVG38k8_dwU8XXT75InA-48" value="" style="endArrow=classic;html=1;rounded=0;exitX=0.5;exitY=1;exitDx=0;exitDy=0;entryX=0.5;entryY=0;entryDx=0;entryDy=0;" parent="1" source="JVG38k8_dwU8XXT75InA-3" target="bWdd-FNuYPZd20RBbe-Y-10" edge="1">
          <mxGeometry width="50" height="50" relative="1" as="geometry">
            <mxPoint x="-2385" y="780" as="sourcePoint" />
            <mxPoint x="-2335" y="730" as="targetPoint" />
          </mxGeometry>
        </mxCell>
        <mxCell id="JVG38k8_dwU8XXT75InA-49" value="" style="endArrow=classic;html=1;rounded=0;exitX=0.5;exitY=1;exitDx=0;exitDy=0;entryX=0.5;entryY=0;entryDx=0;entryDy=0;" parent="1" source="JVG38k8_dwU8XXT75InA-4" target="OjwI3aqR1hCVZbcka7N2-258" edge="1">
          <mxGeometry width="50" height="50" relative="1" as="geometry">
            <mxPoint x="-2385" y="780" as="sourcePoint" />
            <mxPoint x="-2335" y="730" as="targetPoint" />
          </mxGeometry>
        </mxCell>
        <mxCell id="JVG38k8_dwU8XXT75InA-50" value="" style="endArrow=classic;html=1;rounded=0;exitX=0.5;exitY=1;exitDx=0;exitDy=0;entryX=0.5;entryY=0;entryDx=0;entryDy=0;" parent="1" source="JVG38k8_dwU8XXT75InA-5" target="HVDQ8SukldScqDi56Urr-16" edge="1">
          <mxGeometry width="50" height="50" relative="1" as="geometry">
            <mxPoint x="-2385" y="780" as="sourcePoint" />
            <mxPoint x="-2335" y="730" as="targetPoint" />
          </mxGeometry>
        </mxCell>
        <mxCell id="JVG38k8_dwU8XXT75InA-51" value="" style="endArrow=classic;html=1;rounded=0;exitX=0.5;exitY=1;exitDx=0;exitDy=0;entryX=0.5;entryY=0;entryDx=0;entryDy=0;" parent="1" source="JVG38k8_dwU8XXT75InA-6" target="OjwI3aqR1hCVZbcka7N2-259" edge="1">
          <mxGeometry width="50" height="50" relative="1" as="geometry">
            <mxPoint x="-1095" y="780" as="sourcePoint" />
            <mxPoint x="-1045" y="730" as="targetPoint" />
          </mxGeometry>
        </mxCell>
        <mxCell id="zd44GBkmWmEWS7j5n-WW-196" value="" style="endArrow=classic;html=1;rounded=0;exitX=0.5;exitY=1;exitDx=0;exitDy=0;entryX=0.5;entryY=0;entryDx=0;entryDy=0;" edge="1" parent="1" source="bWdd-FNuYPZd20RBbe-Y-10" target="zd44GBkmWmEWS7j5n-WW-32">
          <mxGeometry width="50" height="50" relative="1" as="geometry">
            <mxPoint x="-3230" y="1580" as="sourcePoint" />
            <mxPoint x="-3180" y="1530" as="targetPoint" />
          </mxGeometry>
        </mxCell>
        <mxCell id="zd44GBkmWmEWS7j5n-WW-197" value="" style="endArrow=classic;html=1;rounded=0;exitX=0.5;exitY=1;exitDx=0;exitDy=0;entryX=0.5;entryY=0;entryDx=0;entryDy=0;" edge="1" parent="1" source="bWdd-FNuYPZd20RBbe-Y-10" target="zd44GBkmWmEWS7j5n-WW-194">
          <mxGeometry width="50" height="50" relative="1" as="geometry">
            <mxPoint x="-3230" y="1580" as="sourcePoint" />
            <mxPoint x="-3180" y="1530" as="targetPoint" />
          </mxGeometry>
        </mxCell>
      </root>
    </mxGraphModel>
  </diagram>
</mxfile>
